<svg xmlns="http://www.w3.org/2000/svg" xmlns:xlink="http://www.w3.org/1999/xlink" viewBox="0 0 71.04 98.41"><defs><linearGradient id="a" x1="19.36" y1="34.19" x2="76.07" y2="90.9" gradientUnits="userSpaceOnUse"><stop offset="0" stop-color="#08e1cf"/><stop offset="0.2" stop-color="#08e2c1"/><stop offset="0.58" stop-color="#07e39c"/><stop offset="0.59" stop-color="#07e39a"/></linearGradient></defs><path d="M71,59.61a19.1,19.1,0,0,1-1.59,8.27A8.87,8.87,0,0,1,63.6,73c-.57.15-.72.46-.87,1-1.43,5-3.29,9.72-6.72,13.72a22.18,22.18,0,0,1-5.13,4,58.63,58.63,0,0,1-12.16,6.16,9.54,9.54,0,0,1-6.58-.08,58.65,58.65,0,0,1-15-8.23c-3.32-2.45-5.16-6.06-6.75-9.77a37.29,37.29,0,0,1-2-5.9A1.12,1.12,0,0,0,7.45,73a8.84,8.84,0,0,1-5.92-5.39,20.61,20.61,0,0,1-1.29-11c.39-2.66,2.21-4.24,4.71-5.1.58-.21.77.14,1,.5a7,7,0,0,1,.88,3.75A13.59,13.59,0,0,0,34,56.43c0-.78.23-1,1-.92s1.51-.19,2,.13.15,1.21.23,1.84A13.61,13.61,0,0,0,64.28,55,5.1,5.1,0,0,1,64.87,52a1,1,0,0,1,1.35-.51A6.6,6.6,0,0,1,71,57.66C71.05,58.31,71,59,71,59.61ZM7.54,32a9.1,9.1,0,0,0,1.11-2.16L6,30.92a22.93,22.93,0,0,1,1.51-5.13c2.65-6.33,7.26-10.95,12.91-14.64a44.13,44.13,0,0,1,6.1-3.27c.5-.22.72-.2.84.41.21,1.07.53,2.12.83,3.32,2.94-5,6.52-9.12,11.88-11.61V9.11c0,1.72,0,1.68,1.73,1.45,5.47-.72,10.59.12,15.06,3.57,3.64,2.81,5.79,6.64,7.24,10.91a31.76,31.76,0,0,1,1.24,4.77c-.47-.08-.6-.45-.81-.69a20.68,20.68,0,0,0-7.24-5.68,11.13,11.13,0,0,0-12.68,2.45,1.73,1.73,0,0,1-1.35.56,7.82,7.82,0,0,0-7.55,5,14.33,14.33,0,0,0-1.12,6.29c0,.94-.26,1.12-1.07,1a10.73,10.73,0,0,0-1.27,0c-2.18,0-3.12,1.34-2.34,3.56-.38,0-.71,0-1.05,0-3.22,0-6.45-.16-9.67.11a13.29,13.29,0,0,0-9.65,5.26,3,3,0,0,1-3.13,1,.69.69,0,0,1-.52-.62C5,42.59,5.06,37.2,7.54,32Zm4-6c.37.08.44-.18.57-.34.89-1,1.72-2.13,2.67-3.11a23.42,23.42,0,0,1,8.58-6c.65-.25,1.06-.22,1.46.4s1.05,1.39,1.59,2.09l.18,0c-.2-1.44-.4-2.88-.59-4.32-.26-2-.17-1.56-1.72-1.07C18,15.67,14.2,20.19,11.56,26ZM64.64,48.67a.78.78,0,0,0,.57-.88,49.78,49.78,0,0,0-2.93-16.74,2.59,2.59,0,0,0-.5-.94,16.17,16.17,0,0,0-5.25-4,8.13,8.13,0,0,0-9.07,1.12c.64.36,1.26.65,1.82,1a6.6,6.6,0,0,1,3.3,6.23c-.24,3.33-3,5-5.83,3.63a8.46,8.46,0,0,1-3.39-3,7,7,0,0,1-.88-5.85,4.19,4.19,0,0,0-3.41,2.1,12.23,12.23,0,0,0-1.61,5.27c-.18,2.14-.21,2.14,1.87,2.14h.09c2.11,0,3,1.4,2.24,3.56H50a13.72,13.72,0,0,1,11.61,5.52A2.46,2.46,0,0,0,64.64,48.67Zm-3.22,7.18A10.19,10.19,0,0,1,41,56a10.19,10.19,0,0,1,20.38-.12Zm-11.75-4a1.91,1.91,0,0,0,1.89,1.95,1.94,1.94,0,1,0,0-3.87A2,2,0,0,0,49.67,51.88Zm-.19,4A1.84,1.84,0,0,0,47.55,54a1.89,1.89,0,0,0-1.93,1.91,2,2,0,0,0,2,1.92A2,2,0,0,0,49.48,55.88Zm4.05,4A2.09,2.09,0,0,0,51.6,58a2,2,0,0,0-1.93,1.92,1.91,1.91,0,0,0,1.95,2A2,2,0,0,0,53.53,59.9Zm4-4a1.84,1.84,0,0,0-2-1.91,2,2,0,0,0-1.87,1.88,2,2,0,0,0,1.94,2A2,2,0,0,0,57.51,55.92Zm-26.83-.16a10.23,10.23,0,0,1-20.45-.27,10.23,10.23,0,0,1,20.45.27ZM26,56.07a1.54,1.54,0,0,0-1.61-1.58c-.68,0-1.36,0-2.05,0-.46,0-.63-.19-.62-.64,0-.75,0-1.5,0-2.24a1.39,1.39,0,0,0-1.42-1.35,1.39,1.39,0,0,0-1.55,1.18,7.35,7.35,0,0,0-.1,1.55c0,1.5,0,1.5-1.53,1.5a11.42,11.42,0,0,0-1.17,0,1.54,1.54,0,1,0,.12,3.06c.58,0,1.17,0,1.75,0s.91.13.84.81a12.69,12.69,0,0,0,0,2,1.62,1.62,0,0,0,1.59,1.53,1.57,1.57,0,0,0,1.49-1.6c.05-.84-.34-1.9.17-2.46s1.66-.15,2.52-.22A1.55,1.55,0,0,0,26,56.07Zm9.85-7.15h0c-.61,0-1.23,0-1.85,0a1.64,1.64,0,0,0-.14,3.27,35.58,35.58,0,0,0,4,0,1.58,1.58,0,0,0,1.46-1.76,1.6,1.6,0,0,0-1.61-1.51C37.09,48.89,36.47,48.92,35.85,48.92ZM48.93,35.33a1.68,1.68,0,0,0,.94-1.61c0-.12-.09-.37-.17-.61A5.38,5.38,0,0,0,46,29.72c-.51-.17-.67,0-.81.43a5.35,5.35,0,0,0,2.15,5.27A1.41,1.41,0,0,0,48.93,35.33Z" style="fill:url(#a)"/></svg>