<svg xmlns="http://www.w3.org/2000/svg" x="0px" y="0px"
width="64" height="64"
viewBox="0 0 172 172"
style=" fill:#000000;"><defs><linearGradient x1="106.15625" y1="135.37475" x2="106.15625" y2="145.49587" gradientUnits="userSpaceOnUse" id="color-1_4Gr1IK-XDnai_gr1"><stop offset="0" stop-color="#60f9ed"></stop><stop offset="1" stop-color="#60fac6"></stop></linearGradient><linearGradient x1="86" y1="15.72456" x2="86" y2="148.89825" gradientUnits="userSpaceOnUse" id="color-2_4Gr1IK-XDnai_gr2"><stop offset="0" stop-color="#08e1cf"></stop><stop offset="1" stop-color="#07e398"></stop></linearGradient><linearGradient x1="55.09375" y1="15.72456" x2="55.09375" y2="148.89825" gradientUnits="userSpaceOnUse" id="color-3_4Gr1IK-XDnai_gr3"><stop offset="0" stop-color="#08e1cf"></stop><stop offset="1" stop-color="#07e398"></stop></linearGradient><linearGradient x1="60.46875" y1="15.72456" x2="60.46875" y2="148.89825" gradientUnits="userSpaceOnUse" id="color-4_4Gr1IK-XDnai_gr4"><stop offset="0" stop-color="#08e1cf"></stop><stop offset="1" stop-color="#07e398"></stop></linearGradient><linearGradient x1="122.28125" y1="29.44694" x2="122.28125" y2="42.95431" gradientUnits="userSpaceOnUse" id="color-5_4Gr1IK-XDnai_gr5"><stop offset="0" stop-color="#60f9ed"></stop><stop offset="1" stop-color="#60fac6"></stop></linearGradient></defs><g fill="none" fill-rule="nonzero" stroke="none" stroke-width="1" stroke-linecap="butt" stroke-linejoin="miter" stroke-miterlimit="10" stroke-dasharray="" stroke-dashoffset="0" font-family="none" font-weight="none" font-size="none" text-anchor="none" style="mix-blend-mode: normal"><path d="M0,172v-172h172v172z" fill="none"></path><g><circle cx="39.5" cy="52.5" transform="scale(2.6875,2.6875)" r="2.121" fill="url(#color-1_4Gr1IK-XDnai_gr1)"></circle><path d="M115.5625,16.125h-37.625c-15.43969,0 -28.15694,11.90025 -29.45231,27.01206c-12.13138,1.29 -21.61019,11.58312 -21.61019,24.05044v18.8125c0,20.51637 13.59606,37.91256 32.25,43.66381v18.14869c0,4.44512 3.61738,8.0625 8.0625,8.0625h38.96875h17.46875c4.44512,0 8.0625,-3.61738 8.0625,-8.0625v-20.941c8.07862,-5.28363 13.4375,-14.39425 13.4375,-24.7465v-56.4375c0,-16.29969 -13.26281,-29.5625 -29.5625,-29.5625zM72.5625,131.6875h22.20144c-1.84631,2.23331 -3.04494,5.01756 -3.31906,8.0625h-26.94487v-8.81769c2.623,0.46762 5.30781,0.75519 8.0625,0.75519zM64.5,147.8125v-2.6875h27.44744c0.56706,1.99144 1.52919,3.81894 2.8165,5.375h-27.57644c-1.4835,0 -2.6875,-1.20669 -2.6875,-2.6875zM126.3125,147.8125c0,1.48081 -1.204,2.6875 -2.6875,2.6875h-17.46875c-5.18688,0 -9.40625,-4.21938 -9.40625,-9.40625c0,-5.18687 4.21937,-9.40625 9.40625,-9.40625h9.40625c3.79475,0 7.41213,-0.74444 10.75,-2.05325zM139.75,102.125c0,13.33538 -10.84944,24.1875 -24.1875,24.1875h-9.40625h-33.59375c-22.22831,0 -40.3125,-18.08419 -40.3125,-40.3125v-18.8125c0,-9.45731 7.02513,-17.286 16.125,-18.5975v26.66h5.375v-26.875v-2.6875c0,-13.33537 10.84944,-24.1875 24.1875,-24.1875h37.625c13.33806,0 24.1875,10.85213 24.1875,24.1875z" fill="url(#color-2_4Gr1IK-XDnai_gr2)"></path><path d="M43,86h-5.375c0,19.264 15.6735,34.9375 34.9375,34.9375v-5.375c-16.29969,0 -29.5625,-13.26281 -29.5625,-29.5625z" fill="url(#color-3_4Gr1IK-XDnai_gr3)"></path><path d="M53.75,86h-5.375c0,13.33538 10.84944,24.1875 24.1875,24.1875v-5.375c-10.37106,0 -18.8125,-8.43875 -18.8125,-18.8125z" fill="url(#color-4_4Gr1IK-XDnai_gr4)"></path><g fill="url(#color-5_4Gr1IK-XDnai_gr5)"><path d="M112.875,48.375h18.8125v0c0,-10.37375 -8.43875,-18.8125 -18.8125,-18.8125v0z"></path></g></g></g></svg>