<svg xmlns="http://www.w3.org/2000/svg" x="0px" y="0px"
width="64" height="64"
viewBox="0 0 172 172"
style=" fill:#000000;"><defs><linearGradient x1="76.59375" y1="74.96513" x2="76.59375" y2="83.6565" gradientUnits="userSpaceOnUse" id="color-1_BQ3k7JERi_k4_gr1"><stop offset="0" stop-color="#60f9ed"></stop><stop offset="1" stop-color="#60fac6"></stop></linearGradient><linearGradient x1="52.40625" y1="74.96513" x2="52.40625" y2="83.6565" gradientUnits="userSpaceOnUse" id="color-2_BQ3k7JERi_k4_gr2"><stop offset="0" stop-color="#60f9ed"></stop><stop offset="1" stop-color="#60fac6"></stop></linearGradient><linearGradient x1="64.5" y1="90.91812" x2="64.5" y2="100.06638" gradientUnits="userSpaceOnUse" id="color-3_BQ3k7JERi_k4_gr3"><stop offset="0" stop-color="#60f9ed"></stop><stop offset="1" stop-color="#60fac6"></stop></linearGradient><linearGradient x1="126.3125" y1="116.01131" x2="126.3125" y2="135.72413" gradientUnits="userSpaceOnUse" id="color-4_BQ3k7JERi_k4_gr4"><stop offset="0" stop-color="#60f9ed"></stop><stop offset="1" stop-color="#60fac6"></stop></linearGradient><linearGradient x1="126.3125" y1="16.52544" x2="126.3125" y2="162.95388" gradientUnits="userSpaceOnUse" id="color-5_BQ3k7JERi_k4_gr5"><stop offset="0" stop-color="#08e1cf"></stop><stop offset="1" stop-color="#07e398"></stop></linearGradient><linearGradient x1="86" y1="16.52544" x2="86" y2="162.95388" gradientUnits="userSpaceOnUse" id="color-6_BQ3k7JERi_k4_gr6"><stop offset="0" stop-color="#08e1cf"></stop><stop offset="1" stop-color="#07e398"></stop></linearGradient></defs><g fill="none" fill-rule="nonzero" stroke="none" stroke-width="1" stroke-linecap="butt" stroke-linejoin="miter" stroke-miterlimit="10" stroke-dasharray="" stroke-dashoffset="0" font-family="none" font-weight="none" font-size="none" text-anchor="none" style="mix-blend-mode: normal"><path d="M0,172v-172h172v172z" fill="none"></path><g><circle cx="28.5" cy="29.5" transform="scale(2.6875,2.6875)" r="1.5" fill="url(#color-1_BQ3k7JERi_k4_gr1)"></circle><circle cx="19.5" cy="29.5" transform="scale(2.6875,2.6875)" r="1.5" fill="url(#color-2_BQ3k7JERi_k4_gr2)"></circle><path d="M64.5,99.4375c3.69531,0 6.83431,-2.28975 7.95769,-5.47444c0.4515,-1.27388 -0.61812,-2.58806 -2.021,-2.58806h-11.87606c-1.40287,0 -2.46981,1.31419 -2.021,2.58806c1.12606,3.18469 4.26506,5.47444 7.96037,5.47444z" fill="url(#color-3_BQ3k7JERi_k4_gr3)"></path><circle cx="47" cy="47" transform="scale(2.6875,2.6875)" r="3" fill="url(#color-4_BQ3k7JERi_k4_gr4)"></circle><path d="M126.3125,115.5625c-5.92863,0 -10.75,4.82137 -10.75,10.75c0,5.92863 4.82137,10.75 10.75,10.75c5.92863,0 10.75,-4.82137 10.75,-10.75c0,-5.92863 -4.82137,-10.75 -10.75,-10.75zM126.3125,131.6875c-2.96431,0 -5.375,-2.41069 -5.375,-5.375c0,-2.96431 2.41069,-5.375 5.375,-5.375c2.96431,0 5.375,2.41069 5.375,5.375c0,2.96431 -2.41069,5.375 -5.375,5.375z" fill="url(#color-5_BQ3k7JERi_k4_gr5)"></path><path d="M150.5,118.25h-1.29806c-0.30369,-0.94331 -0.65037,-1.70387 -1.02125,-2.40263l0.93794,-0.94062c2.09625,-2.09356 2.09625,-5.50669 0,-7.60025l-3.80012,-3.80013c-2.02906,-2.03175 -5.57119,-2.03175 -7.60294,0l-0.99169,0.99169c-0.76594,-0.3655 -1.548,-0.69069 -2.34888,-0.97019v-1.40287c0,-2.96431 -2.41069,-5.375 -5.375,-5.375h-5.375c-2.96431,0 -5.375,2.41069 -5.375,5.375v1.40287c-0.79819,0.2795 -1.58294,0.60738 -2.34888,0.97019l-0.99169,-0.99169c-2.03175,-2.03175 -5.57656,-2.03175 -7.60025,0l-0.80356,0.80356c-3.02881,-4.97188 -7.05469,-9.25575 -11.77931,-12.67425c0.35475,-0.9675 0.70144,-1.94038 0.96212,-2.94819h1.06156c5.92863,0 10.75,-4.82138 10.75,-10.75c0,-2.22794 -0.68262,-4.3 -1.84631,-6.01731c4.18981,-1.47006 7.22131,-5.42069 7.22131,-10.10769c0,-3.90225 -2.09087,-7.32881 -5.21106,-9.21275c1.57219,-1.86781 2.52356,-4.28119 2.52356,-6.91225c0,-5.92862 -4.82137,-10.75 -10.75,-10.75c0,-5.92862 -4.82137,-10.75 -10.75,-10.75c-1.98337,0 -3.84581,0.54019 -5.44219,1.4835c-0.602,-5.36425 -5.16269,-9.546 -10.68281,-9.546c-3.20619,0 -6.09256,1.41094 -8.0625,3.64694c-1.96994,-2.236 -4.85631,-3.64694 -8.0625,-3.64694c-5.52819,0 -10.04319,4.20862 -10.63175,9.58362c-1.60981,-0.96212 -3.48569,-1.52112 -5.49325,-1.52112c-5.92862,0 -10.75,4.82138 -10.75,10.75c-5.92862,0 -10.75,4.82138 -10.75,10.75c0,2.63106 0.95137,5.04444 2.52356,6.91225c-3.12019,1.88394 -5.21106,5.3105 -5.21106,9.21275c0,4.687 3.0315,8.63763 7.22131,10.10769c-1.16369,1.71731 -1.84631,3.78938 -1.84631,6.01731c0,5.92862 4.82138,10.75 10.75,10.75h1.06156c0.258,0.99437 0.559,1.96456 0.90569,2.91862c-11.36275,8.21838 -18.09225,21.28769 -18.09225,35.39169v7.37719h87.29806c0.30369,0.94331 0.65037,1.70388 1.02125,2.40263l-0.93794,0.93794c-1.01587,1.01588 -1.57487,2.36769 -1.57487,3.8055c0,1.43512 0.559,2.78425 1.57487,3.79475l3.80281,3.8055c2.09087,2.08819 5.50131,2.09088 7.60025,-0.00269l0.99169,-0.99169c0.76325,0.36281 1.548,0.688 2.34619,0.9675v1.40556c0,2.96431 2.41069,5.375 5.375,5.375h5.375c2.96431,0 5.375,-2.41069 5.375,-5.375v-1.40556c0.79819,-0.2795 1.58294,-0.60737 2.34619,-0.9675l0.99706,0.99437c2.09625,2.08819 5.504,2.09087 7.59756,-0.00269l3.80281,-3.80281c2.09625,-2.09356 2.09625,-5.50669 0,-7.60025l-0.93794,-0.93794c0.37088,-0.69875 0.72025,-1.45931 1.02125,-2.40263h1.30075c2.96431,0 5.375,-2.41069 5.375,-5.375v-5.375c0,-2.96431 -2.41069,-5.375 -5.375,-5.375zM96.75,83.3125v-2.6875v-8.0625c2.96431,0 5.375,2.41069 5.375,5.375c0,2.96431 -2.41069,5.375 -5.375,5.375zM32.25,80.625v2.6875c-2.96431,0 -5.375,-2.41069 -5.375,-5.375c0,-2.96431 2.41069,-5.375 5.375,-5.375zM26.875,67.1875c-2.96431,0 -5.375,-2.41069 -5.375,-5.375c0,-2.96431 2.41069,-5.375 5.375,-5.375h2.6875v-5.375c-2.96431,0 -5.375,-2.41069 -5.375,-5.375c0,-2.96431 2.41069,-5.375 5.375,-5.375h5.375v-5.375c0,-2.96431 2.41069,-5.375 5.375,-5.375c2.96431,0 5.375,2.41069 5.375,5.375h5.375v-1.71731v-6.34519c0,-2.96431 2.41069,-5.375 5.375,-5.375c2.96431,0 5.375,2.41069 5.375,5.375h5.375c0,-2.96431 2.41069,-5.375 5.375,-5.375c2.96431,0 5.375,2.41069 5.375,5.375v8.0625h5.375c0,-2.96431 2.41069,-5.375 5.375,-5.375c2.96431,0 5.375,2.41069 5.375,5.375v5.375h5.375c2.96431,0 5.375,2.41069 5.375,5.375c0,2.96431 -2.41069,5.375 -5.375,5.375v5.375h2.6875c2.96431,0 5.375,2.41069 5.375,5.375c0,2.96431 -2.41069,5.375 -5.375,5.375h-8.0625c-4.44512,0 -8.0625,-3.61738 -8.0625,-8.0625v-6.71875h-5.375c0,3.70606 -3.01538,6.71875 -6.71875,6.71875c-3.70337,0 -6.71875,-3.01269 -6.71875,-6.71875h-5.375c0,3.70606 -3.01537,6.71875 -6.71875,6.71875c-3.70338,0 -6.71875,-3.01269 -6.71875,-6.71875h-5.375v6.71875c0,4.44512 -3.61738,8.0625 -8.0625,8.0625zM91.375,72.26419v8.36081c0,14.81888 -12.05613,26.875 -26.875,26.875c-14.81887,0 -26.875,-12.05612 -26.875,-26.875v-8.36081c5.11969,-1.04812 9.19931,-4.99069 10.39256,-10.05662c1.99144,1.44319 4.43706,2.29244 7.07619,2.29244c3.79475,0 7.18637,-1.75494 9.40625,-4.50156c2.21988,2.74663 5.6115,4.50156 9.40625,4.50156c2.63912,0 5.08475,-0.84925 7.07619,-2.29244c1.19325,5.06863 5.27287,9.01119 10.39256,10.05662zM53.60488,129h-32.10488v-2.00219c0,-12.01313 5.5685,-23.16625 15.01775,-30.40369c3.81088,6.65425 9.91688,11.83038 17.23225,14.43187v4.5365c0,2.24944 0.92988,4.28119 2.41875,5.74319zM59.27012,129l1.81675,-5.44756c0.24188,0.0215 0.47838,0.07256 0.72563,0.07256h5.375c0.24725,0 0.48375,-0.05106 0.72562,-0.07256l1.81675,5.44756zM69.875,115.5625c0,1.4835 -1.20669,2.6875 -2.6875,2.6875h-5.375c-1.48081,0 -2.6875,-1.204 -2.6875,-2.6875v-2.6875h10.75zM96.75,123.625v5.375h-21.35487l-2.56388,-7.69431c1.48888,-1.462 2.41875,-3.49375 2.41875,-5.74319v-4.5365c7.29656,-2.59613 13.35956,-7.77225 17.16506,-14.405c4.17638,3.21963 7.66744,7.24013 10.23131,11.85994c-1.15025,2.04788 -0.87881,4.687 0.86,6.4285l0.94063,0.94062c-0.37087,0.69875 -0.72025,1.45931 -1.02125,2.40263h-1.30075c-2.96431,-0.00269 -5.375,2.408 -5.375,5.37231zM150.5,129h-5.61956l-0.41388,2.18762c-0.37894,1.99681 -0.8815,2.84338 -1.71194,4.24088l-1.30881,2.2145l3.87,3.86731l-3.80012,3.80281l-3.87,-3.87l-1.79256,1.05888c-1.50769,0.88956 -3.13362,1.56144 -4.83481,1.9995l-2.01831,0.52138v5.47713h-5.375v-5.47713l-2.01562,-0.51869c-1.70119,-0.43806 -3.32712,-1.10994 -4.83481,-1.9995l-1.79256,-1.05888l-3.87,3.87l-3.80281,-3.80281l3.87,-3.86731l-1.30881,-2.2145c-0.83313,-1.40019 -1.33569,-2.24406 -1.71194,-4.24088l-0.41387,-2.19031h-5.61956v-5.375h5.61956l0.41388,-2.18762c0.37894,-2.00219 0.88419,-2.84875 1.71731,-4.24894l1.30344,-2.20644l-3.87,-3.87l3.80281,-3.80013l3.87,3.86731l1.79256,-1.05888c1.50769,-0.88956 3.13362,-1.56144 4.83481,-1.9995l2.01562,-0.52138v-5.47444h5.375v5.47444l2.01563,0.51869c1.70119,0.43806 3.32712,1.10994 4.83481,1.9995l1.79256,1.05888l3.87,-3.86731l3.80013,3.80012l-3.87,3.87l1.30344,2.20644c0.83581,1.40019 1.33837,2.24675 1.71731,4.24894l0.41656,2.19031h5.61956z" fill="url(#color-6_BQ3k7JERi_k4_gr6)"></path></g></g></svg>