<svg xmlns="http://www.w3.org/2000/svg" x="0px" y="0px"
width="64" height="64"
viewBox="0 0 172 172"
style=" fill:#000000;"><defs><linearGradient x1="86" y1="19.83644" x2="86" y2="152.048" gradientUnits="userSpaceOnUse" id="color-1_KsAukArNgUDv_gr1"><stop offset="0" stop-color="#08e1cf"></stop><stop offset="1" stop-color="#07e398"></stop></linearGradient><linearGradient x1="86.11556" y1="19.83644" x2="86.11556" y2="152.048" gradientUnits="userSpaceOnUse" id="color-2_KsAukArNgUDv_gr2"><stop offset="0" stop-color="#08e1cf"></stop><stop offset="1" stop-color="#07e398"></stop></linearGradient><linearGradient x1="51.0625" y1="41.68581" x2="51.0625" y2="98.67425" gradientUnits="userSpaceOnUse" id="color-3_KsAukArNgUDv_gr3"><stop offset="0" stop-color="#60f9ed"></stop><stop offset="1" stop-color="#60fac6"></stop></linearGradient><linearGradient x1="95.40625" y1="41.68581" x2="95.40625" y2="98.67425" gradientUnits="userSpaceOnUse" id="color-4_KsAukArNgUDv_gr4"><stop offset="0" stop-color="#60f9ed"></stop><stop offset="1" stop-color="#60fac6"></stop></linearGradient><linearGradient x1="75.25" y1="41.68581" x2="75.25" y2="98.67425" gradientUnits="userSpaceOnUse" id="color-5_KsAukArNgUDv_gr5"><stop offset="0" stop-color="#60f9ed"></stop><stop offset="1" stop-color="#60fac6"></stop></linearGradient><linearGradient x1="116.90625" y1="41.68581" x2="116.90625" y2="98.67425" gradientUnits="userSpaceOnUse" id="color-6_KsAukArNgUDv_gr6"><stop offset="0" stop-color="#60f9ed"></stop><stop offset="1" stop-color="#60fac6"></stop></linearGradient><linearGradient x1="123.16812" y1="41.68581" x2="123.16812" y2="98.67425" gradientUnits="userSpaceOnUse" id="color-7_KsAukArNgUDv_gr7"><stop offset="0" stop-color="#60f9ed"></stop><stop offset="1" stop-color="#60fac6"></stop></linearGradient><linearGradient x1="107.71769" y1="41.68581" x2="107.71769" y2="98.67425" gradientUnits="userSpaceOnUse" id="color-8_KsAukArNgUDv_gr8"><stop offset="0" stop-color="#60f9ed"></stop><stop offset="1" stop-color="#60fac6"></stop></linearGradient><linearGradient x1="88.82188" y1="41.68581" x2="88.82188" y2="98.67425" gradientUnits="userSpaceOnUse" id="color-9_KsAukArNgUDv_gr9"><stop offset="0" stop-color="#60f9ed"></stop><stop offset="1" stop-color="#60fac6"></stop></linearGradient><linearGradient x1="68.89944" y1="41.68581" x2="68.89944" y2="98.67425" gradientUnits="userSpaceOnUse" id="color-10_KsAukArNgUDv_gr10"><stop offset="0" stop-color="#60f9ed"></stop><stop offset="1" stop-color="#60fac6"></stop></linearGradient><linearGradient x1="49.79669" y1="41.68581" x2="49.79669" y2="98.67425" gradientUnits="userSpaceOnUse" id="color-11_KsAukArNgUDv_gr11"><stop offset="0" stop-color="#60f9ed"></stop><stop offset="1" stop-color="#60fac6"></stop></linearGradient></defs><g fill="none" fill-rule="none" stroke="none" stroke-width="1" stroke-linecap="butt" stroke-linejoin="miter" stroke-miterlimit="10" stroke-dasharray="" stroke-dashoffset="0" font-family="none" font-weight="none" font-size="none" text-anchor="none" style="mix-blend-mode: normal"><path d="M0,172v-172h172v172z" fill="none" fill-rule="nonzero"></path><g><path d="M129.98362,21.5v5.375c5.62225,0 7.07888,1.43781 7.07888,6.99019v85.312c0,0.70144 -0.02956,1.35181 -0.08869,1.95112l-0.043,0.4085c-0.11825,1.19862 -0.18544,1.88662 -0.86806,2.74394c-0.27412,0.22306 -0.7955,0.61006 -1.07769,0.81969l-0.21231,0.10481c-0.52675,0.258 -0.97019,0.47569 -1.66088,0.7525l-43.473,18.02238c-2.107,0.95675 -2.67675,1.161 -3.60662,1.15025v0c-0.0215,-0.00538 -0.04838,-0.00538 -0.06987,-0.00538v0c-0.01613,0 -0.03225,0 -0.04838,0c-0.8815,0.11556 -1.4835,-0.20963 -3.63619,-1.18519l-43.43,-18.00087c-0.65844,-0.26337 -1.10187,-0.48106 -1.634,-0.74175l-0.19888,-0.09675c-0.28219,-0.20963 -0.80625,-0.59931 -1.07769,-0.82237c-0.68262,-0.85462 -0.74981,-1.54263 -0.86806,-2.74394l-0.043,-0.41119c-0.06181,-0.59931 -0.08869,-1.24969 -0.08869,-1.94575v-85.312c0,-5.55238 1.45931,-6.99019 7.09231,-6.99019h87.91887v-5.375h-87.91887c-8.6215,0 -12.46731,3.81356 -12.46731,12.36519v85.312c0,0.903 0.03762,1.73881 0.12094,2.5155l0.03762,0.37087c0.1505,1.53187 0.35744,3.63081 2.23063,5.82919c0.17469,0.20694 0.344,0.40312 2.07475,1.67969l0.82237,0.44881c0.65575,0.3225 1.20669,0.58856 1.98069,0.89763l43.31175,17.9525c2.14731,0.97287 3.5905,1.62862 5.77813,1.62862c0.05375,0 0.10481,0 0.16394,0c2.18494,0 3.62813,-0.65306 5.69481,-1.59369l43.35744,-17.97131c0.80625,-0.31981 1.35181,-0.58588 1.9995,-0.903l0.84119,-0.45956c1.73344,-1.27656 1.90006,-1.47275 2.07206,-1.67969c1.87588,-2.20106 2.08281,-4.3 2.23331,-5.83188l0.04031,-0.37625c0.07525,-0.774 0.11556,-1.60712 0.11556,-2.50744v-85.312c0,-8.55163 -3.84044,-12.36519 -12.45388,-12.36519z" fill="url(#color-1_KsAukArNgUDv_gr1)" fill-rule="evenodd"></path><path d="M107.46506,131.6875h-42.70169l20.90606,7.18637z" fill="url(#color-2_KsAukArNgUDv_gr2)" fill-rule="evenodd"></path><g fill-rule="nonzero"><path d="M43,91.375h16.125v-8.0625h-8.0625v-13.4375h8.0625v-8.0625h-8.0625v-13.4375h8.0625v-8.0625h-16.125z" fill="url(#color-3_KsAukArNgUDv_gr3)"></path><rect x="34" y="15" transform="scale(2.6875,2.6875)" width="3" height="19" fill="url(#color-4_KsAukArNgUDv_gr4)"></rect><path d="M72.5625,75.25h4.29194c6.11944,0 9.14556,-3.06106 9.14556,-9.25575v-15.85625c0,-6.57631 -3.23306,-9.8255 -9.77712,-9.8255h-2.71438h-9.0085v51.0625h8.0625zM72.5625,48.375h2.6875c1.4835,0 2.6875,1.204 2.6875,2.6875v13.4375c0,1.4835 -1.204,2.6875 -2.6875,2.6875h-2.6875z" fill="url(#color-5_KsAukArNgUDv_gr5)"></path><path d="M129,81.83437v-9.27187h-8.0625v7.59488c0,2.15537 -1.03738,3.15512 -3.19275,3.15512h-1.59638c-2.236,0 -3.27337,-0.99975 -3.27337,-3.15512v-15.65738v-10.28506v-3.15244c0,-1.4835 1.204,-2.6875 2.6875,-2.6875h2.6875c1.4835,0 2.6875,1.204 2.6875,2.6875v2.6875v5.375h8.0625v-9.07569c0,-6.56556 -3.26531,-9.73681 -10.03244,-9.73681h-4.04469c-6.76444,0 -10.11038,3.2465 -10.11038,9.81475v31.43569c0,6.56556 3.34594,9.81206 10.11038,9.81206h4.09575c6.68112,0 9.98138,-3.15512 9.98138,-9.54063z" fill="url(#color-6_KsAukArNgUDv_gr6)"></path><path d="M130.31956,109.72794l-0.0215,-0.23112l-0.04569,-0.23113l-0.04837,-0.23112l-0.04569,-0.20962l-0.06719,-0.20694l-0.06987,-0.20694l-0.09138,-0.18544l-0.11556,-0.20694l-0.11556,-0.18544l-0.13706,-0.20963l-0.13706,-0.18275l-0.16125,-0.16394l-0.16125,-0.18275l-0.18544,-0.16125l-0.18275,-0.16394l-0.18275,-0.11556l-0.18544,-0.13706l-0.18275,-0.11556l-0.20694,-0.11556l-0.20963,-0.11556l-0.22844,-0.11556l-0.23113,-0.09138l-0.22844,-0.11556l-0.25531,-0.09137l-0.20425,-0.06987l-0.20694,-0.06988l-0.23112,-0.06987l-0.20694,-0.06987l-0.23113,-0.06719l-0.22844,-0.06988l-0.23113,-0.04569l-0.25262,-0.06988l-0.23113,-0.06987l-0.24994,-0.04569l-0.25531,-0.06987l-0.25263,-0.06988l-0.25262,-0.06719l-0.23113,-0.04838l-0.20425,-0.06719l-0.20963,-0.04838l-0.18275,-0.06719l-0.18275,-0.04569l-0.27681,-0.09406l-0.25531,-0.09138l-0.22844,-0.09406l-0.18275,-0.11556l-0.20963,-0.11556l-0.15856,-0.16125l-0.09406,-0.13706l-0.11288,-0.25531l-0.02419,-0.301v-0.04569l0.02419,-0.23112l0.09138,-0.20694l0.13706,-0.20962l0.20694,-0.18275l0.16125,-0.09406l0.18544,-0.09137l0.20425,-0.04569l0.23113,-0.04837l0.25262,-0.04569h0.27681h0.23112l0.20425,0.02419l0.23113,0.0215l0.23112,0.02419l0.22844,0.04569l0.23113,0.04837l0.23112,0.04569l0.22844,0.06719l0.23112,0.06987l0.25263,0.06988l0.18275,0.09137l0.20694,0.06987l0.18275,0.09406l0.20963,0.09137l0.18275,0.09137l0.20694,0.09406l0.18544,0.11556l0.20694,0.09137l0.18275,0.13975l0.18544,0.11556l0.20425,0.11556l0.18544,0.13706l0.13706,-0.18544l0.11556,-0.18275l0.13706,-0.18544l0.13975,-0.18544l0.13706,-0.20694l0.11556,-0.18544l0.13975,-0.18544l0.13706,-0.18275l0.11556,-0.18544l0.13706,-0.18544l0.13706,-0.18544l0.11556,-0.18544l0.13706,-0.20694l0.13975,-0.18544l0.13706,-0.18275l0.11556,-0.18544l0.13706,-0.18544l-0.18275,-0.13706l-0.18275,-0.13975l-0.18544,-0.13975l-0.18544,-0.11556l-0.20694,-0.13706l-0.18275,-0.11556l-0.20694,-0.11556l-0.20694,-0.11556l-0.18544,-0.09406l-0.20694,-0.11556l-0.22844,-0.09137l-0.20694,-0.09137l-0.20694,-0.09406l-0.20694,-0.06987l-0.23112,-0.09137l-0.20694,-0.04569l-0.20694,-0.06987l-0.23113,-0.06988l-0.20694,-0.04569l-0.22844,-0.04569l-0.22844,-0.04569l-0.20963,-0.04569l-0.22844,-0.04838l-0.25263,-0.0215l-0.23112,-0.04569l-0.25262,-0.02419h-0.23113l-0.25262,-0.02419l-0.25263,-0.0215h-0.25263h-0.25262h-0.25262h-0.23113l-0.22844,0.0215l-0.23112,0.02419l-0.23113,0.02419l-0.22844,0.0215l-0.20694,0.04569l-0.23113,0.04838l-0.20694,0.04569l-0.20694,0.04569l-0.18275,0.04569l-0.20694,0.06987l-0.23112,0.09137l-0.22844,0.06988l-0.20963,0.09137l-0.20425,0.11556l-0.20694,0.09406l-0.20963,0.11556l-0.18275,0.11556l-0.18275,0.13706l-0.18544,0.13975l-0.16125,0.11556l-0.18275,0.16125l-0.16125,0.18544l-0.16125,0.16125l-0.16125,0.18544l-0.13975,0.18544l-0.13706,0.18275l-0.11556,0.20963l-0.11287,0.20694l-0.09138,0.20694l-0.09406,0.20963l-0.09137,0.20694l-0.04569,0.20694l-0.06987,0.20963l-0.04569,0.20694l-0.04569,0.20963l-0.02419,0.23113l-0.0215,0.20694l-0.02419,0.23112v0.23113v0.04569v0.25531l0.02419,0.25262l0.0215,0.23113l0.02419,0.23113l0.04569,0.20694l0.04569,0.23112l0.06987,0.18544l0.06719,0.20694l0.06987,0.18544l0.09406,0.16125l0.11556,0.20694l0.11288,0.18544l0.11556,0.16125l0.13706,0.16125l0.13975,0.16394l0.15856,0.16125l0.16125,0.16125l0.16125,0.13975l0.18544,0.11288l0.18275,0.13975l0.20694,0.11556l0.18544,0.11556l0.22844,0.11556l0.20694,0.11556l0.23112,0.09137l0.23112,0.09406l0.22844,0.09137l0.25263,0.09406l0.20694,0.06719l0.20694,0.06987l0.20694,0.06988l0.22844,0.04569l0.20962,0.06988l0.22844,0.06987l0.23112,0.04569l0.23113,0.06988l0.22844,0.04569l0.25263,0.06988l0.23112,0.04569l0.25262,0.06988l0.23113,0.04569l0.22844,0.06719l0.20694,0.04837l0.20694,0.06988l0.18544,0.04569l0.15856,0.04569l0.27681,0.11556l0.23112,0.09137l0.20694,0.09406l0.18275,0.09137l0.18544,0.13975l0.15856,0.13706l0.11556,0.16125l0.09406,0.23113l0.0215,0.27681v0.04837l-0.0215,0.23113l-0.06988,0.20694l-0.09137,0.18544l-0.13706,0.16125l-0.18544,0.13975l-0.16125,0.09137l-0.18544,0.06988l-0.20694,0.04569l-0.20425,0.04569l-0.23112,0.04569l-0.25263,0.02419h-0.27681h-0.23113l-0.24994,-0.02419h-0.23113l-0.23113,-0.04569l-0.25262,-0.02419l-0.22844,-0.04569l-0.23112,-0.04569l-0.23113,-0.04569l-0.20694,-0.06987l-0.22844,-0.06988l-0.23113,-0.06987l-0.20694,-0.09137l-0.20694,-0.06988l-0.20694,-0.09137l-0.20694,-0.09137l-0.20694,-0.09406l-0.18275,-0.11556l-0.20962,-0.09137l-0.18275,-0.11556l-0.20694,-0.13975l-0.18275,-0.11556l-0.20694,-0.13706l-0.18544,-0.13975l-0.20694,-0.13706l-0.18275,-0.13975l-0.13975,0.18544l-0.15856,0.16125l-0.13975,0.18544l-0.16125,0.18275l-0.13706,0.16394l-0.13706,0.18275l-0.16125,0.18544l-0.13706,0.16125l-0.16394,0.18544l-0.13706,0.16125l-0.16125,0.18544l-0.13706,0.18544l-0.13706,0.16125l-0.16125,0.18544l-0.13975,0.18544l-0.15856,0.16125l-0.13975,0.18275l0.18275,0.16394l0.16125,0.13706l0.18544,0.13975l0.18275,0.13706l0.18544,0.13975l0.18275,0.13706l0.18544,0.11556l0.18275,0.11556l0.20694,0.11556l0.18544,0.11556l0.20694,0.11556l0.20694,0.09406l0.20694,0.11288l0.20694,0.09406l0.20694,0.09137l0.22844,0.09137l0.20694,0.06988l0.23112,0.06987l0.20694,0.09138l0.23112,0.06987l0.22844,0.06988l0.20694,0.04569l0.23113,0.06988l0.22844,0.04569l0.23113,0.04569l0.22844,0.04569l0.23112,0.04837l0.23113,0.0215l0.22844,0.04569l0.25263,0.02419l0.23112,0.02419l0.22844,0.0215h0.25263l0.23112,0.02419h0.22844h0.25531h0.25263h0.22844l0.23112,-0.02419l0.25263,-0.0215l0.23112,-0.02419l0.20694,-0.02419l0.22844,-0.0215l0.23113,-0.04569l0.20694,-0.04837l0.20694,-0.04569l0.22844,-0.04569l0.20962,-0.06987l0.22844,-0.06988l0.23112,-0.06719l0.22844,-0.09406l0.23112,-0.09138l0.20694,-0.11556l0.20694,-0.09137l0.20694,-0.11556l0.18275,-0.13975l0.18544,-0.11288l0.18275,-0.13975l0.16125,-0.13975l0.18544,-0.16125l0.13706,-0.13706l0.16125,-0.16394l0.13706,-0.16125l0.11556,-0.18275l0.13706,-0.18544l0.11556,-0.18544l0.11556,-0.18544l0.09137,-0.20694l0.09137,-0.18544l0.09406,-0.20694l0.06987,-0.23113l0.043,-0.20963l0.06987,-0.23112l0.04569,-0.23113l0.02419,-0.25262l0.0215,-0.23113l0.02419,-0.25262v-0.25531v-0.04569v-0.25531z" fill="url(#color-7_KsAukArNgUDv_gr7)"></path><path d="M113.96075,111.59844h-0.22844h-0.23113h-0.22844h-0.23113h-0.23113h-0.22844h-0.23112h-0.25263h-0.23112h-0.22844h-0.22844h-0.23381h-0.22844h-0.22844h-0.23113h-0.23112h-0.22844h-0.23113h-0.22844h-0.23113h-0.22844h-0.23112h-0.22844h-0.23113h-0.23112h-0.22844h-0.23113h-0.25262h-0.23113h-0.22844h-0.23112h-0.22844h-0.23113h-0.23113h-0.22844h-0.22844h-0.23113v-0.23113v-0.25531v-0.23113v-0.23113v-0.25262v-0.23113v-0.23113v-0.25531v-0.23113v-0.22844v-0.25531v-0.23113h0.23113h0.22844h0.22844h0.23113h0.23113h0.22844h0.23112h0.22844h0.20962h0.22844h0.23113h0.22844h0.23113h0.22844h0.23113h0.22844h0.23112h0.23112h0.22844h0.23112h0.23112h0.22844h0.22844h0.23112h0.23113h0.22844h0.20694h0.23112h0.23113h0.22844h0.23112h0.22844h0.23112h0.22844h0.23113v-0.23113v-0.20694v-0.23113v-0.23112v-0.20963v-0.23113v-0.22844v-0.23112v-0.20963v-0.23112v-0.23112v-0.20694v-0.23113v-0.23112v-0.20694v-0.23113h-0.23113h-0.22844h-0.23112h-0.22844h-0.23112h-0.22844h-0.23113h-0.23112h-0.20694h-0.22844h-0.23113h-0.23112h-0.22844h-0.22844h-0.23112h-0.23112h-0.22844h-0.23112h-0.23112h-0.22844h-0.23113h-0.22844h-0.23113h-0.22844h-0.23113h-0.22844h-0.20962h-0.22844h-0.23112h-0.22844h-0.23113h-0.23113h-0.22844h-0.22844h-0.23113v-0.23113v-0.23113v-0.23112v-0.23112v-0.23113v-0.23113v-0.20694v-0.23112v-0.23113v-0.23112v-0.23113v-0.23112h0.23113h0.22844h0.22844h0.23113h0.23113h0.22844h0.20694h0.23112h0.23112h0.22844h0.23113h0.22844h0.23113h0.22844h0.23113h0.22844h0.23112h0.23112h0.22844h0.20694h0.23112h0.22844h0.23113h0.22844h0.23113h0.23112h0.22844h0.23112h0.23113h0.22844h0.23112h0.22844h0.20694h0.23112h0.22844h0.23113h0.23112h0.22844h0.23113v-0.23112v-0.20694v-0.23113v-0.23112v-0.23113v-0.20694v-0.23112v-0.23113v-0.20694v-0.23112v-0.23112v-0.20963v-0.23112v-0.23112v-0.23113v-0.20694v-0.23112h-0.23113h-0.22844h-0.23112h-0.23113h-0.22844h-0.23112h-0.23113h-0.22844h-0.23112h-0.22844h-0.23112h-0.22844h-0.23112h-0.22844h-0.20963h-0.22844h-0.23113h-0.22844h-0.23112h-0.22844h-0.23112h-0.22844h-0.23112h-0.23113h-0.22844h-0.23112h-0.22844h-0.23112h-0.23113h-0.22844h-0.22844h-0.23113h-0.23113h-0.22844h-0.23112h-0.23113h-0.22844h-0.23112h-0.22844h-0.23112h-0.22844h-0.23113h-0.22844h-0.20963h-0.22844h-0.23113h-0.22844h-0.23112h-0.22844h-0.23112h-0.22844h-0.23113h-0.23112h-0.22844h-0.23112h-0.23113h-0.22844h-0.23113v0.23112v0.23112v0.23113v0.23112v0.23113v0.23112v0.23112v0.23113v0.23112v0.23113v0.22844v0.23112v0.23113v0.23113v0.23112v0.23113v0.23112v0.23112v0.20963v0.22844v0.23112v0.23113v0.23113v0.23113v0.23112v0.23112v0.23113v0.23113v0.23113v0.23112v0.23112v0.23113v0.22844v0.23112v0.23113v0.23112v0.23112v0.23113v0.23113v0.23113v0.23112v0.23112v0.23113v0.23113v0.23113v0.23112v0.23112v0.23113v0.23113v0.23112v0.23113v0.23112v0.23112v0.23113v0.20694v0.23112v0.23113v0.23113v0.23113v0.23112v0.23112v0.23113v0.23113v0.23113v0.23112v0.22844v0.23112v0.23113v0.23112v0.23113v0.23112v0.23112v0.23113h0.23113h0.22844h0.23113h0.23112h0.22844h0.23112h0.23113h0.22844h0.23112h0.25263h0.22844h0.23113h0.22844h0.23112h0.22844h0.23113h0.23112h0.22844h0.23113h0.23113h0.22844h0.22844h0.23113h0.23113h0.22844h0.23112h0.22844h0.23113h0.25262h0.23113h0.22844h0.23112h0.23113h0.22844h0.23112h0.22844h0.23113h0.22844h0.23113h0.22844h0.23112h0.23113h0.22844h0.22844h0.23381h0.22844h0.22844h0.23112h0.25263h0.23112h0.22844h0.23113h0.23113h0.22844h0.23113h0.22844h0.23113h0.23112v-0.23113v-0.20962v-0.23113v-0.23113v-0.22844v-0.20694v-0.23112v-0.23113v-0.20963v-0.23112v-0.23113v-0.20694v-0.23112v-0.23112v-0.23113v-0.20694v-0.23112h-0.23112z" fill="url(#color-8_KsAukArNgUDv_gr8)"></path><path d="M97.1585,98.59363h-0.20694h-0.23113h-0.22844h-0.23113h-0.20694h-0.23113h-0.22844h-0.22844h-0.20963h-0.22844h-0.23113h-0.22844h-0.20963h-0.22844h-0.22844h-0.23112h-0.20694h-0.23113h-0.22844l-0.11556,0.18544l-0.11556,0.20694l-0.13706,0.18275l-0.11556,0.20963l-0.11556,0.18275l-0.11556,0.20963l-0.13706,0.18275l-0.11556,0.20963l-0.11556,0.18275l-0.11287,0.18544l-0.13975,0.20694l-0.11288,0.18544l-0.11556,0.20694l-0.11556,0.18544l-0.13706,0.20694l-0.11556,0.18275l-0.11556,0.18544l-0.11556,0.20694l-0.11556,0.18544l-0.13706,0.20694l-0.11556,0.18544l-0.11556,0.20694l-0.11288,0.18544l-0.13975,0.20694l-0.11288,0.18275l-0.11556,0.18544l-0.11556,0.20694l-0.13706,0.18544l-0.11556,0.20694l-0.11556,0.18544l-0.11556,0.20694l-0.13706,0.18544l-0.11556,0.20694l-0.11556,0.18275l-0.11288,-0.18275l-0.11556,-0.20694l-0.13975,-0.18544l-0.11288,-0.20694l-0.11556,-0.18544l-0.11556,-0.20694l-0.11556,-0.18544l-0.13706,-0.20694l-0.11556,-0.18544l-0.11556,-0.18275l-0.11288,-0.20694l-0.11556,-0.18544l-0.13975,-0.20694l-0.11288,-0.18544l-0.11556,-0.20694l-0.11288,-0.18544l-0.11825,-0.20694l-0.13706,-0.18544l-0.11556,-0.18275l-0.11556,-0.20694l-0.11556,-0.18544l-0.13706,-0.20694l-0.11556,-0.18544l-0.11288,-0.20694l-0.11556,-0.18544l-0.11556,-0.18275l-0.13706,-0.20963l-0.11556,-0.18275l-0.11556,-0.20963l-0.11288,-0.18275l-0.11825,-0.20963l-0.13706,-0.18275l-0.11556,-0.20694l-0.11288,-0.18544h-0.23112h-0.22844h-0.20694h-0.23113h-0.23112h-0.22844h-0.20694h-0.22844h-0.23113h-0.23112h-0.20694h-0.22844h-0.23113h-0.23112h-0.20425h-0.23112h-0.23113h-0.22844h-0.20694h-0.23113h-0.23113v0.23112v0.23112v0.23113v0.23112v0.23113v0.23112v0.23112v0.23113v0.23112v0.23113v0.22844v0.23112v0.23113v0.23113v0.23112v0.23113v0.23112v0.23112v0.20963v0.22844v0.23112v0.23113v0.23113v0.23113v0.23112v0.23112v0.23113v0.23113v0.23113v0.23112v0.23112v0.23113v0.22844v0.23112v0.23113v0.23112v0.23112v0.23113v0.23113v0.23113v0.23112v0.23112v0.23113v0.23113v0.23113v0.23112v0.23112v0.23113v0.23113v0.23112v0.23113v0.23112v0.23112v0.23113v0.20694v0.23112v0.23113v0.23113v0.23113v0.23112v0.23112v0.23113v0.23113v0.23113v0.23112v0.22844v0.23112v0.23113v0.23112v0.23113v0.23112v0.23112v0.23113h0.23113h0.23113h0.22844h0.23112h0.22844h0.23113h0.23113h0.22844h0.23113h0.22844h0.23112h0.22844h0.23112h0.23113h0.22844h0.23113h0.22844h0.23113h0.23112v-0.23113v-0.23112v-0.23112v-0.23113v-0.23381v-0.23113v-0.23112v-0.23113v-0.22844v-0.23112v-0.20962v-0.23113v-0.23112v-0.23112v-0.23113v-0.23112v-0.23381v-0.22844v-0.23112v-0.23113v-0.23112v-0.23113v-0.23381v-0.23112v-0.23113v-0.23112v-0.23113v-0.23112v-0.23112v-0.23113v-0.23112v-0.23112v-0.20694v-0.23113v-0.23381v-0.23113v-0.23112v-0.23113v-0.23112v-0.23112v-0.23113v-0.23113v-0.23113l0.13706,0.18544l0.11556,0.20962l0.13706,0.18544l0.11556,0.20694l0.13706,0.18544l0.11556,0.20694l0.13706,0.18544l0.11556,0.20962l0.13706,0.18275l0.11556,0.20962l0.13706,0.18544l0.11556,0.20694l0.13706,0.18544l0.11556,0.20962l0.13706,0.18275l0.11556,0.20962l0.13975,0.18544l0.13706,0.20694l0.11556,0.18544l0.13706,0.20962l0.11556,0.18544l0.13975,0.20694l0.11287,0.18544l0.13975,0.20963l0.11288,0.18544l0.13975,0.20694l0.11556,0.18544l0.13706,0.20694l0.11556,0.18544l0.13706,0.20963l0.11556,0.18275l0.13706,0.20962l0.11556,0.18544l0.13706,0.20694h0.09137l0.11556,-0.18275l0.13706,-0.20963l0.11556,-0.18544l0.13975,-0.18544l0.11288,-0.20694l0.13975,-0.18544l0.11287,-0.18544l0.11556,-0.20694l0.13975,-0.18544l0.11556,-0.18544l0.13706,-0.18544l0.11556,-0.20963l0.13706,-0.18275l0.11556,-0.18544l0.11556,-0.20963l0.13706,-0.18544l0.11556,-0.18544l0.13706,-0.20694l0.11556,-0.18544l0.13706,-0.18544l0.11556,-0.20694l0.11556,-0.18544l0.13706,-0.18544l0.11556,-0.20962l0.13706,-0.18544l0.11556,-0.18275l0.13706,-0.18544l0.11556,-0.20963l0.11556,-0.18544l0.13706,-0.18544l0.11556,-0.20694l0.13706,-0.18544l0.11556,-0.18275l0.13975,-0.20963l0.11288,-0.18544v0.23112v0.23113v0.23112v0.23113v0.23112v0.23112v0.23113v0.23112v0.23381v0.23112v0.23112v0.22844v0.23112v0.23113v0.23381v0.23112v0.23113v0.23112v0.23112v0.23113v0.23112v0.23113v0.23112v0.23112v0.23113v0.23112v0.23113v0.23112v0.23112v0.23113v0.23112v0.23381v0.23112v0.23112v0.22844v0.23113v0.23112v0.23113v0.23381v0.23113v0.23112v0.23112v0.23113h0.23112h0.22844h0.23113h0.25262h0.23112h0.22844h0.23113h0.23113h0.22844h0.25262h0.23113h0.23112h0.22844h0.23113h0.22844h0.25263h0.23112h0.22844h0.23113v-0.23113v-0.23112v-0.23112v-0.23113v-0.23112v-0.23113v-0.23112v-0.22844v-0.23112v-0.23113v-0.23113v-0.23113v-0.23112v-0.23112v-0.23113v-0.23113v-0.23113v-0.23112v-0.20694v-0.23113v-0.23112v-0.23112v-0.23113v-0.23112v-0.23113v-0.23113v-0.23112v-0.23112v-0.23113v-0.23113v-0.23113v-0.23112v-0.23112v-0.23113v-0.23113v-0.23113v-0.23112v-0.23112v-0.23113v-0.23112v-0.22844v-0.23113v-0.23112v-0.23112v-0.23113v-0.23113v-0.23113v-0.23112v-0.23112v-0.23113v-0.23113v-0.23113v-0.23112v-0.22844v-0.20963v-0.23112v-0.23112v-0.23113v-0.23112v-0.23113v-0.23113v-0.23112v-0.22844v-0.23113v-0.23112v-0.23113v-0.23112v-0.23112v-0.23113v-0.23112v-0.23113v-0.23112v-0.23112h-0.23113z" fill="url(#color-9_KsAukArNgUDv_gr9)"></path><path d="M77.96975,114.99275l-0.09137,-0.20694l-0.06987,-0.23112l-0.09137,-0.20694l-0.09137,-0.20694l-0.09137,-0.20694l-0.09137,-0.20694l-0.09137,-0.20694l-0.09137,-0.23112l-0.09137,-0.20694l-0.06987,-0.20694l-0.09137,-0.20694l-0.09137,-0.20694l-0.09137,-0.20694l-0.09675,-0.23919l-0.09137,-0.20694l-0.09137,-0.20963l-0.09137,-0.20694l-0.06719,-0.20694l-0.09137,-0.20694l-0.09137,-0.23113l-0.09137,-0.20694l-0.09137,-0.20694l-0.09137,-0.20694l-0.09137,-0.20694l-0.09137,-0.20694l-0.06987,-0.23112l-0.09137,-0.20694l-0.09137,-0.20694l-0.09137,-0.20694l-0.09137,-0.20694l-0.09137,-0.20694l-0.09137,-0.23112l-0.09137,-0.20694l-0.06988,-0.20694l-0.09137,-0.20694l-0.09137,-0.20694l-0.09137,-0.20694l-0.09137,-0.23113l-0.09137,-0.20694l-0.09137,-0.20694l-0.09137,-0.20694l-0.06719,-0.20694l-0.09137,-0.20694l-0.09137,-0.20694l-0.09137,-0.23112l-0.09137,-0.20694l-0.09137,-0.20963l-0.09137,-0.20694l-0.09137,-0.20694l-0.06987,-0.20694l-0.09137,-0.23113l-0.09137,-0.20694l-0.09137,-0.20694l-0.09137,-0.20694l-0.09137,-0.20694l-0.09137,-0.20694l-0.09137,-0.23112l-0.06987,-0.20694l-0.09137,-0.20694l-0.09137,-0.20694l-0.09137,-0.20694l-0.09137,-0.20694l-0.09137,-0.23112l-0.09137,-0.20694l-0.09137,-0.20694l-0.06719,-0.20694l-0.09137,-0.20694l-0.09137,-0.20694l-0.09137,-0.23113l-0.09137,-0.20694l-0.09137,-0.20694l-0.09137,-0.20694l-0.09137,-0.20694l-0.06987,-0.20694l-0.09137,-0.23112l-0.09137,-0.20694l-0.09137,-0.20694l-0.09137,-0.20694h-0.23113h-0.20694h-0.26338h-0.22844h-0.22844h-0.20694h-0.23113h-0.23112h-0.22844h-0.20694h-0.23112h-0.23113h-0.22844h-0.20694h-0.23113h-0.22844h-0.22844h-0.21231h-0.22844l-0.09137,0.20694l-0.09137,0.20694l-0.09137,0.20694l-0.06987,0.23112l-0.09137,0.20694l-0.09137,0.20694l-0.09137,0.20694l-0.09137,0.20694l-0.09137,0.20694l-0.09137,0.23113l-0.09137,0.20694l-0.06719,0.20694l-0.09137,0.20694l-0.09137,0.20694l-0.09137,0.20694l-0.09137,0.23112l-0.09137,0.20694l-0.09137,0.20694l-0.09137,0.20694l-0.06988,0.20694l-0.09137,0.20694l-0.09137,0.23112l-0.09137,0.20694l-0.09137,0.20694l-0.09137,0.20694l-0.09137,0.20694l-0.09137,0.20694l-0.06987,0.23113l-0.09137,0.20694l-0.09137,0.20694l-0.09137,0.20694l-0.09137,0.20963l-0.09137,0.20694l-0.09137,0.23112l-0.09137,0.20694l-0.06987,0.20694l-0.09137,0.20694l-0.09137,0.20694l-0.09137,0.20694l-0.09137,0.20694l-0.09137,0.23113l-0.09137,0.20694l-0.09137,0.20694l-0.06987,0.20694l-0.09137,0.20694l-0.09137,0.20694l-0.09137,0.23112l-0.09137,0.20694l-0.09137,0.20694l-0.09137,0.20694l-0.09137,0.20694l-0.06988,0.20694l-0.09137,0.23112l-0.09137,0.20694l-0.09137,0.20694l-0.09137,0.20694l-0.09137,0.20694l-0.09137,0.20694l-0.09137,0.23113l-0.09675,0.20425l-0.09137,0.20694l-0.09137,0.20694l-0.09137,0.20963l-0.09137,0.20694l-0.09137,0.23112l-0.09137,0.20694l-0.09675,0.20963l-0.06988,0.20694l-0.09137,0.20694l-0.09137,0.20694l-0.09137,0.23112l-0.09137,0.20694l-0.09137,0.20694l-0.09137,0.20694l-0.09137,0.20694l-0.06987,0.20694l-0.09137,0.23112l-0.09137,0.20694l-0.09137,0.20694l-0.09137,0.20694h0.22844h0.23112h0.22844h0.23112h0.25263h0.22844h0.22844h0.23112h0.23112h0.22844h0.22844h0.23112h0.23112h0.22844h0.25263h0.22844h0.23112h0.22844h0.22844h0.22844l0.09137,-0.20694l0.06987,-0.20694l0.09137,-0.20694l0.09137,-0.23112l0.06987,-0.20694l0.09137,-0.20694l0.09137,-0.20694l0.06987,-0.20694l0.09137,-0.20694l0.09137,-0.20694l0.06719,-0.20694l0.09137,-0.23112l0.09137,-0.20694l0.06987,-0.20694l0.09137,-0.20694h0.22844h0.23112h0.23113h0.22844h0.20963h0.22844h0.22844h0.22844h0.23113h0.23112h0.22844h0.22844h0.23112h0.23112h0.20694h0.22844h0.23113h0.22844h0.24188h0.23112h0.22844h0.23112h0.22844h0.23113h0.20694h0.22844h0.22844h0.22844h0.22844l0.09137,0.20694l0.06987,0.20694l0.09137,0.20694l0.09137,0.23112l0.06987,0.20694l0.09137,0.20694l0.09137,0.20694l0.06719,0.20694l0.09137,0.20694l0.09137,0.20694l0.06719,0.20694l0.09137,0.23112l0.09137,0.20694l0.06988,0.20694l0.09137,0.20694h0.23113h0.22844h0.20694h0.22844h0.23112h0.23113h0.22844h0.20694h0.23112h0.23112h0.22844h0.22844h0.23112h0.20694h0.23112h0.22844h0.23113h0.22844h0.20694h0.23112h0.22844l-0.09137,-0.20694zM70.56569,108.68788h-0.23113h-0.22844h-0.23113h-0.22844h-0.22844h-0.23112h-0.22844h-0.20694h-0.23112h-0.23112h-0.22844h-0.22844h-0.23112h-0.23113h-0.22844h-0.22844l0.09137,-0.20694l0.06987,-0.20963l0.09137,-0.23112l0.09137,-0.20694l0.06719,-0.20963l0.09137,-0.20694l0.09137,-0.23113l0.09137,-0.20963l0.06987,-0.20694l0.09137,-0.20694l0.09137,-0.20963l0.06719,-0.23113l0.09137,-0.20694l0.09137,-0.20963l0.06987,-0.20694l0.09137,-0.20694l0.09137,-0.23112l0.09137,-0.20694l0.06719,-0.20694l0.09137,-0.20963l0.09137,-0.23112l0.06987,-0.20963l0.09137,-0.20694l0.09137,0.20694l0.06987,0.20963l0.09137,0.23112l0.09137,0.20963l0.06987,0.20694l0.09137,0.20694l0.09137,0.23112l0.06987,0.20694l0.09137,0.20694l0.09137,0.20963l0.06719,0.20694l0.10213,0.22844l0.06987,0.20963l0.09137,0.20694l0.09137,0.20694l0.06987,0.20963l0.09137,0.23113l0.09137,0.20694l0.06987,0.20963l0.09137,0.20694l0.09137,0.23112l0.06987,0.20963l0.09137,0.20694h-0.22844z" fill="url(#color-10_KsAukArNgUDv_gr10)"></path><path d="M57.47756,105.61606h-0.22844h-0.23112h-0.22844h-0.23112h-0.23113h-0.22844h-0.23112h-0.22844h-0.23112h-0.23113h-0.22844h-0.22844h-0.23113h-0.23112h-0.22844h-0.23112h-0.23113h-0.22844h-0.23113h-0.22844h-0.23112h-0.22844h-0.23112h-0.22844h-0.23112h-0.23113h-0.22844h-0.23113h-0.22844h-0.23112h-0.23112v0.23112v0.20694v0.23112v0.23112v0.23113v0.20694v0.23113v0.23113v0.23112v0.20694v0.23113v0.23112v0.23112v0.20963v0.23112h0.23112h0.20694h0.23113h0.22844h0.23112h0.20694h0.22844h0.23113h0.22844h0.20963h0.22844h0.23113h0.22844h0.20694h0.23113v0.23112v0.22844v0.23113v0.23112v0.25531v0.23113v0.23113v0.23112v0.23112l-0.18275,0.11556l-0.16394,0.09137l-0.20425,0.09406l-0.18544,0.09137l-0.20694,0.09137l-0.20694,0.04838l-0.22844,0.06719l-0.23112,0.04569l-0.23113,0.04838l-0.22844,0.0215l-0.25262,0.02419l-0.25531,0.0215h-0.27412h-0.25531l-0.25262,-0.0215l-0.22844,-0.02419l-0.22844,-0.04569l-0.23112,-0.04569l-0.23113,-0.06987l-0.22844,-0.06988l-0.20962,-0.09137l-0.20425,-0.09137l-0.20694,-0.09406l-0.18544,-0.11556l-0.18275,-0.11556l-0.18544,-0.13706l-0.18275,-0.13975l-0.16125,-0.13975l-0.13975,-0.16125l-0.15856,-0.16125l-0.13975,-0.16125l-0.13706,-0.18544l-0.11556,-0.18544l-0.11556,-0.18275l-0.11288,-0.20963l-0.09406,-0.20694l-0.09137,-0.23112l-0.06719,-0.18544l-0.06987,-0.20694l-0.04569,-0.20694l-0.04838,-0.20963l-0.04569,-0.20694l-0.0215,-0.23112l-0.02419,-0.20963l-0.0215,-0.23112v-0.23112v-0.04569v-0.25262l0.0215,-0.23113l0.02419,-0.23112l0.04569,-0.25531l0.04569,-0.20694l0.04569,-0.23112l0.06988,-0.22844l0.09137,-0.20962l0.06988,-0.20694l0.09137,-0.20962l0.11556,-0.18275l0.11287,-0.20963l0.11556,-0.18275l0.11556,-0.16394l0.13975,-0.18275l0.15856,-0.16394l0.13975,-0.16125l0.15856,-0.13706l0.16394,-0.13975l0.15856,-0.13706l0.18544,-0.11556l0.18275,-0.11556l0.18544,-0.11556l0.20694,-0.09406l0.20694,-0.09137l0.20694,-0.06987l0.20694,-0.06988l0.20694,-0.04569l0.22844,-0.04569l0.20963,-0.02419l0.22844,-0.0215h0.22844h0.25531l0.25263,0.0215l0.25263,0.02419l0.23112,0.0215l0.22844,0.04837l0.23112,0.04569l0.20694,0.04569l0.20694,0.06987l0.20694,0.06988l0.18275,0.06719l0.18544,0.09406l0.18275,0.09138l0.20694,0.11556l0.18544,0.11556l0.18275,0.11556l0.18544,0.11556l0.18275,0.13975l0.18544,0.11556l0.18275,0.16125l0.18544,0.13706l0.13706,-0.18275l0.16125,-0.16394l0.13706,-0.18275l0.16125,-0.18544l0.13706,-0.18544l0.13975,-0.16125l0.15856,-0.18544l0.13975,-0.18275l0.16125,-0.18544l0.13706,-0.16394l0.13706,-0.18275l0.16125,-0.18544l0.13706,-0.16125l0.13975,-0.18544l0.16125,-0.18544l0.13706,-0.18275l0.16125,-0.16394l0.13975,-0.18275l-0.18544,-0.13975l-0.18275,-0.16125l-0.18544,-0.13975l-0.18544,-0.13706l-0.18275,-0.11556l-0.18275,-0.13975l-0.20694,-0.11556l-0.18544,-0.11556l-0.20425,-0.11556l-0.18544,-0.11556l-0.20694,-0.09137l-0.20694,-0.11556l-0.20694,-0.09406l-0.20694,-0.09137l-0.20694,-0.09137l-0.20694,-0.06988l-0.18544,-0.06987l-0.20425,-0.04569l-0.20963,-0.06987l-0.20694,-0.04569l-0.20694,-0.04569l-0.20694,-0.04569l-0.22844,-0.04838l-0.23112,-0.04569l-0.20694,-0.0215l-0.25262,-0.04838l-0.23113,-0.0215h-0.22844l-0.25262,-0.02419l-0.25531,-0.0215h-0.25262h-0.25263h-0.22844h-0.25262l-0.23113,0.0215l-0.23112,0.02419l-0.22844,0.0215l-0.23112,0.02419l-0.23113,0.04569l-0.22844,0.02419l-0.23112,0.04569l-0.20425,0.06987l-0.23112,0.04569l-0.20694,0.06988l-0.20694,0.04569l-0.20694,0.09137l-0.23112,0.06988l-0.18275,0.06987l-0.23112,0.11556l-0.20694,0.09138l-0.20694,0.09406l-0.20694,0.11556l-0.20694,0.11556l-0.20694,0.11556l-0.18275,0.11556l-0.18544,0.11556l-0.18275,0.13706l-0.18544,0.11556l-0.18275,0.13975l-0.16125,0.13706l-0.18544,0.16125l-0.15856,0.13975l-0.16125,0.16125l-0.16125,0.16125l-0.13975,0.16125l-0.15856,0.16394l-0.13975,0.16125l-0.13706,0.18544l-0.13975,0.18275l-0.13706,0.18544l-0.11556,0.18544l-0.11556,0.18544l-0.11288,0.18275l-0.11556,0.18544l-0.11556,0.20963l-0.09137,0.20694l-0.09137,0.20694l-0.09406,0.20962l-0.09138,0.20694l-0.09137,0.23113l-0.06988,0.20694l-0.06988,0.23112l-0.06719,0.20963l-0.04569,0.23113l-0.06988,0.23112l-0.04569,0.20694l-0.02419,0.23112l-0.04569,0.22844l-0.0215,0.25531l-0.0215,0.23112v0.23112l-0.02419,0.25263v0.23112v0.04569v0.23112v0.25531l0.02419,0.23112l0.0215,0.23112l0.0215,0.23113l0.02419,0.20694l0.04569,0.23112l0.02419,0.20963l0.04569,0.22844l0.06987,0.20963l0.04569,0.23112l0.06719,0.20694l0.04569,0.20962l0.09406,0.20694l0.06719,0.18544l0.09138,0.20694l0.09406,0.20694l0.09137,0.20962l0.09137,0.20694l0.11556,0.18544l0.11556,0.20694l0.11288,0.18544l0.11556,0.18544l0.13706,0.18544l0.11556,0.18275l0.13975,0.16394l0.13706,0.18275l0.13975,0.16125l0.15856,0.16394l0.16125,0.16125l0.16125,0.13706l0.16125,0.16394l0.16125,0.13706l0.16125,0.13975l0.18275,0.13706l0.18544,0.13975l0.18275,0.13706l0.18544,0.11556l0.18275,0.11556l0.20694,0.11556l0.18544,0.11556l0.20694,0.11556l0.20694,0.09137l0.20694,0.09406l0.20694,0.09137l0.22844,0.09138l0.20694,0.06987l0.20694,0.09137l0.20963,0.06988l0.22844,0.04569l0.20694,0.06988l0.23112,0.04569l0.20694,0.04837l0.22844,0.04569l0.23112,0.04569l0.23112,0.02419l0.22844,0.0215l0.22844,0.02419l0.25263,0.0215l0.23112,0.02419h0.23112h0.25263h0.25263h0.25262l0.25263,-0.02419l0.23113,-0.0215l0.25262,-0.02419l0.22844,-0.0215l0.25531,-0.02419l0.22844,-0.02419l0.23112,-0.04569l0.22844,-0.04569l0.20694,-0.04569l0.23112,-0.04569l0.20694,-0.06987l0.23112,-0.06988l0.20425,-0.06987l0.20962,-0.06988l0.20694,-0.06719l0.20425,-0.09406l0.23113,-0.09138l0.20694,-0.09137l0.23113,-0.09406l0.20694,-0.11556l0.20694,-0.09138l0.20694,-0.11556l0.20694,-0.11556l0.20694,-0.11556l0.18275,-0.11556l0.18544,-0.11556l0.18275,-0.13706l0.18544,-0.11556l0.18275,-0.13975l0.16125,-0.11556l0.18544,-0.13706l0.15856,-0.13975v-0.23112v-0.23112v-0.23113v-0.20694v-0.23112v-0.23113v-0.23112v-0.23113v-0.23112v-0.20694v-0.23112v-0.23113v-0.23113v-0.23113v-0.23112v-0.23112v-0.20694v-0.23112v-0.23112v-0.23112v-0.23113v-0.23113v-0.23113v-0.20694v-0.23112v-0.23112v-0.23113v-0.23112v-0.23113v-0.20963v-0.23112v-0.22844v-0.23112h-0.22844z" fill="url(#color-11_KsAukArNgUDv_gr11)"></path></g></g></g></svg>