<svg xmlns="http://www.w3.org/2000/svg" x="0px" y="0px"
width="64" height="64"
viewBox="0 0 172 172"
style=" fill:#000000;"><defs><linearGradient x1="86" y1="76.10731" x2="86" y2="93.9765" gradientUnits="userSpaceOnUse" id="color-1_OaKn3zc533RQ_gr1"><stop offset="0" stop-color="#60f9ed"></stop><stop offset="1" stop-color="#60fac6"></stop></linearGradient><linearGradient x1="117.32281" y1="34.42419" x2="117.32281" y2="132.21963" gradientUnits="userSpaceOnUse" id="color-2_OaKn3zc533RQ_gr2"><stop offset="0" stop-color="#60f9ed"></stop><stop offset="1" stop-color="#60fac6"></stop></linearGradient><linearGradient x1="117.32281" y1="34.42419" x2="117.32281" y2="132.21963" gradientUnits="userSpaceOnUse" id="color-3_OaKn3zc533RQ_gr3"><stop offset="0" stop-color="#60f9ed"></stop><stop offset="1" stop-color="#60fac6"></stop></linearGradient><linearGradient x1="54.67719" y1="34.42419" x2="54.67719" y2="132.21963" gradientUnits="userSpaceOnUse" id="color-4_OaKn3zc533RQ_gr4"><stop offset="0" stop-color="#60f9ed"></stop><stop offset="1" stop-color="#60fac6"></stop></linearGradient><linearGradient x1="54.67719" y1="34.42419" x2="54.67719" y2="132.21963" gradientUnits="userSpaceOnUse" id="color-5_OaKn3zc533RQ_gr5"><stop offset="0" stop-color="#60f9ed"></stop><stop offset="1" stop-color="#60fac6"></stop></linearGradient><linearGradient x1="86" y1="16.297" x2="86" y2="156.50656" gradientUnits="userSpaceOnUse" id="color-6_OaKn3zc533RQ_gr6"><stop offset="0" stop-color="#08e1cf"></stop><stop offset="1" stop-color="#07e398"></stop></linearGradient><linearGradient x1="86" y1="16.297" x2="86" y2="156.50656" gradientUnits="userSpaceOnUse" id="color-7_OaKn3zc533RQ_gr7"><stop offset="0" stop-color="#08e1cf"></stop><stop offset="1" stop-color="#07e398"></stop></linearGradient><linearGradient x1="86" y1="16.297" x2="86" y2="156.50656" gradientUnits="userSpaceOnUse" id="color-8_OaKn3zc533RQ_gr8"><stop offset="0" stop-color="#08e1cf"></stop><stop offset="1" stop-color="#07e398"></stop></linearGradient><linearGradient x1="131.6875" y1="16.297" x2="131.6875" y2="156.50656" gradientUnits="userSpaceOnUse" id="color-9_OaKn3zc533RQ_gr9"><stop offset="0" stop-color="#08e1cf"></stop><stop offset="1" stop-color="#07e398"></stop></linearGradient><linearGradient x1="122.88056" y1="16.297" x2="122.88056" y2="156.50656" gradientUnits="userSpaceOnUse" id="color-10_OaKn3zc533RQ_gr10"><stop offset="0" stop-color="#08e1cf"></stop><stop offset="1" stop-color="#07e398"></stop></linearGradient><linearGradient x1="49.11944" y1="16.297" x2="49.11944" y2="156.50656" gradientUnits="userSpaceOnUse" id="color-11_OaKn3zc533RQ_gr11"><stop offset="0" stop-color="#08e1cf"></stop><stop offset="1" stop-color="#07e398"></stop></linearGradient><linearGradient x1="49.11944" y1="16.297" x2="49.11944" y2="156.50656" gradientUnits="userSpaceOnUse" id="color-12_OaKn3zc533RQ_gr12"><stop offset="0" stop-color="#08e1cf"></stop><stop offset="1" stop-color="#07e398"></stop></linearGradient><linearGradient x1="122.88056" y1="16.297" x2="122.88056" y2="156.50656" gradientUnits="userSpaceOnUse" id="color-13_OaKn3zc533RQ_gr13"><stop offset="0" stop-color="#08e1cf"></stop><stop offset="1" stop-color="#07e398"></stop></linearGradient><linearGradient x1="40.3125" y1="16.297" x2="40.3125" y2="156.50656" gradientUnits="userSpaceOnUse" id="color-14_OaKn3zc533RQ_gr14"><stop offset="0" stop-color="#08e1cf"></stop><stop offset="1" stop-color="#07e398"></stop></linearGradient><linearGradient x1="111.70056" y1="16.297" x2="111.70056" y2="156.50656" gradientUnits="userSpaceOnUse" id="color-15_OaKn3zc533RQ_gr15"><stop offset="0" stop-color="#08e1cf"></stop><stop offset="1" stop-color="#07e398"></stop></linearGradient><linearGradient x1="60.30213" y1="16.297" x2="60.30213" y2="156.50656" gradientUnits="userSpaceOnUse" id="color-16_OaKn3zc533RQ_gr16"><stop offset="0" stop-color="#08e1cf"></stop><stop offset="1" stop-color="#07e398"></stop></linearGradient><linearGradient x1="111.70056" y1="16.297" x2="111.70056" y2="156.50656" gradientUnits="userSpaceOnUse" id="color-17_OaKn3zc533RQ_gr17"><stop offset="0" stop-color="#08e1cf"></stop><stop offset="1" stop-color="#07e398"></stop></linearGradient><linearGradient x1="60.30213" y1="16.297" x2="60.30213" y2="156.50656" gradientUnits="userSpaceOnUse" id="color-18_OaKn3zc533RQ_gr18"><stop offset="0" stop-color="#08e1cf"></stop><stop offset="1" stop-color="#07e398"></stop></linearGradient></defs><g fill="none" fill-rule="nonzero" stroke="none" stroke-width="1" stroke-linecap="butt" stroke-linejoin="miter" stroke-miterlimit="10" stroke-dasharray="" stroke-dashoffset="0" font-family="none" font-weight="none" font-size="none" text-anchor="none" style="mix-blend-mode: normal"><path d="M0,172v-172h172v172z" fill="none"></path><g><circle cx="32" cy="32" transform="scale(2.6875,2.6875)" r="4" fill="url(#color-1_OaKn3zc533RQ_gr1)"></circle><path d="M129.66381,72.5625h5.54431c-4.74613,-17.35587 -18.41206,-31.0245 -35.77062,-35.77063v5.54431c14.40231,4.44244 25.78656,15.824 30.22631,30.22631z" fill="url(#color-2_OaKn3zc533RQ_gr2)"></path><path d="M99.4375,129.66381v5.54431c17.35856,-4.74881 31.0245,-18.41475 35.77062,-35.77062h-5.54431c-4.43975,14.40231 -15.824,25.78388 -30.22631,30.22631z" fill="url(#color-3_OaKn3zc533RQ_gr3)"></path><path d="M42.33619,99.4375h-5.54431c4.74881,17.35587 18.41475,31.0245 35.77063,35.77062v-5.54431c-14.40231,-4.44244 -25.78656,-15.824 -30.22631,-30.22631z" fill="url(#color-4_OaKn3zc533RQ_gr4)"></path><path d="M36.79187,72.5625h5.54431c4.44244,-14.40231 15.824,-25.78387 30.22631,-30.22631v-5.54431c-17.35856,4.74612 -31.0245,18.41475 -35.77063,35.77063z" fill="url(#color-5_OaKn3zc533RQ_gr5)"></path><g><path d="M86,72.5625c-7.40944,0 -13.4375,6.02806 -13.4375,13.4375c0,7.40944 6.02806,13.4375 13.4375,13.4375c7.40944,0 13.4375,-6.02806 13.4375,-13.4375c0,-7.40944 -6.02806,-13.4375 -13.4375,-13.4375zM86,94.0625c-4.44513,0 -8.0625,-3.61738 -8.0625,-8.0625c0,-4.44512 3.61737,-8.0625 8.0625,-8.0625c4.44512,0 8.0625,3.61737 8.0625,8.0625c0,4.44512 -3.61737,8.0625 -8.0625,8.0625z" fill="url(#color-6_OaKn3zc533RQ_gr6)"></path><path d="M86,64.5c4.44512,0 8.0625,-3.61738 8.0625,-8.0625v-32.25c0,-4.44513 -3.61738,-8.0625 -8.0625,-8.0625c-4.44512,0 -8.0625,3.61737 -8.0625,8.0625v32.25c0,4.44512 3.61737,8.0625 8.0625,8.0625zM83.3125,24.1875c0,-1.4835 1.204,-2.6875 2.6875,-2.6875c1.4835,0 2.6875,1.204 2.6875,2.6875v32.25c0,1.4835 -1.204,2.6875 -2.6875,2.6875c-1.4835,0 -2.6875,-1.204 -2.6875,-2.6875z" fill="url(#color-7_OaKn3zc533RQ_gr7)"></path><path d="M86,107.5c-4.44513,0 -8.0625,3.61738 -8.0625,8.0625v32.25c0,4.44512 3.61737,8.0625 8.0625,8.0625c4.44512,0 8.0625,-3.61738 8.0625,-8.0625v-32.25c0,-4.44513 -3.61737,-8.0625 -8.0625,-8.0625zM88.6875,147.8125c0,1.4835 -1.204,2.6875 -2.6875,2.6875c-1.4835,0 -2.6875,-1.204 -2.6875,-2.6875v-32.25c0,-1.4835 1.204,-2.6875 2.6875,-2.6875c1.4835,0 2.6875,1.204 2.6875,2.6875z" fill="url(#color-8_OaKn3zc533RQ_gr8)"></path><path d="M147.8125,77.9375h-32.25c-4.44512,0 -8.0625,3.61737 -8.0625,8.0625c0,4.44512 3.61738,8.0625 8.0625,8.0625h32.25c4.44512,0 8.0625,-3.61738 8.0625,-8.0625c0,-4.44512 -3.61737,-8.0625 -8.0625,-8.0625zM147.8125,88.6875h-32.25c-1.4835,0 -2.6875,-1.204 -2.6875,-2.6875c0,-1.4835 1.204,-2.6875 2.6875,-2.6875h32.25c1.4835,0 2.6875,1.204 2.6875,2.6875c0,1.4835 -1.204,2.6875 -2.6875,2.6875z" fill="url(#color-9_OaKn3zc533RQ_gr9)"></path><path d="M140.75244,72.5625h5.57119c-5.18956,-23.31137 -23.57475,-41.69656 -46.88612,-46.88612v5.57119c20.32556,4.99069 36.32425,20.98938 41.31494,41.31494z" fill="url(#color-10_OaKn3zc533RQ_gr10)"></path><path d="M31.24756,99.4375h-5.57119c5.18956,23.31138 23.57475,41.69656 46.88613,46.88612v-5.57119c-20.32556,-4.99069 -36.32425,-20.98937 -41.31494,-41.31494z" fill="url(#color-11_OaKn3zc533RQ_gr11)"></path><path d="M72.5625,31.24756v-5.57119c-23.31137,5.18956 -41.69656,23.57475 -46.88612,46.88613h5.57119c4.99069,-20.32556 20.98938,-36.32425 41.31494,-41.31494z" fill="url(#color-12_OaKn3zc533RQ_gr12)"></path><path d="M99.4375,140.75244v5.57119c23.31138,-5.18956 41.69656,-23.57475 46.88612,-46.88612h-5.57119c-4.99069,20.32556 -20.98937,36.32425 -41.31494,41.31494z" fill="url(#color-13_OaKn3zc533RQ_gr13)"></path><path d="M64.5,86c0,-4.44513 -3.61738,-8.0625 -8.0625,-8.0625h-32.25c-4.44513,0 -8.0625,3.61737 -8.0625,8.0625c0,4.44512 3.61737,8.0625 8.0625,8.0625h32.25c4.44512,0 8.0625,-3.61737 8.0625,-8.0625zM21.5,86c0,-1.4835 1.204,-2.6875 2.6875,-2.6875h32.25c1.4835,0 2.6875,1.204 2.6875,2.6875c0,1.4835 -1.204,2.6875 -2.6875,2.6875h-32.25c-1.4835,0 -2.6875,-1.204 -2.6875,-2.6875z" fill="url(#color-14_OaKn3zc533RQ_gr14)"></path><path d="M118.24194,72.5625h5.719c-4.05544,-11.42187 -13.10156,-20.468 -24.52344,-24.52344v5.719c8.47369,3.54481 15.25963,10.33075 18.80444,18.80444z" fill="url(#color-15_OaKn3zc533RQ_gr15)"></path><path d="M53.75806,99.4375h-5.719c4.05544,11.42188 13.10156,20.468 24.52344,24.52344v-5.719c-8.47369,-3.54481 -15.25962,-10.33075 -18.80444,-18.80444z" fill="url(#color-16_OaKn3zc533RQ_gr16)"></path><path d="M99.4375,123.96094c11.42188,-4.05544 20.468,-13.10156 24.52344,-24.52344h-5.719c-3.54481,8.47369 -10.33075,15.25963 -18.80444,18.80444z" fill="url(#color-17_OaKn3zc533RQ_gr17)"></path><path d="M53.75806,72.5625c3.54481,-8.47369 10.33075,-15.25962 18.80444,-18.80444v-5.719c-11.42187,4.05544 -20.468,13.10156 -24.52344,24.52344z" fill="url(#color-18_OaKn3zc533RQ_gr18)"></path></g></g></g></svg>