<svg xmlns="http://www.w3.org/2000/svg" x="0px" y="0px"
width="64" height="64"
viewBox="0 0 172 172"
style=" fill:#000000;"><defs><linearGradient x1="86" y1="16.125" x2="86" y2="155.875" gradientUnits="userSpaceOnUse" id="color-1_79054_gr1"><stop offset="0" stop-color="#08e1cf"></stop><stop offset="1" stop-color="#07e398"></stop></linearGradient><linearGradient x1="53.75" y1="51.0625" x2="53.75" y2="91.375" gradientUnits="userSpaceOnUse" id="color-2_79054_gr2"><stop offset="0" stop-color="#60f9ed"></stop><stop offset="1" stop-color="#60fac6"></stop></linearGradient><linearGradient x1="118.25" y1="51.0625" x2="118.25" y2="91.375" gradientUnits="userSpaceOnUse" id="color-3_79054_gr3"><stop offset="0" stop-color="#60f9ed"></stop><stop offset="1" stop-color="#60fac6"></stop></linearGradient><linearGradient x1="86" y1="51.0625" x2="86" y2="77.9375" gradientUnits="userSpaceOnUse" id="color-4_79054_gr4"><stop offset="0" stop-color="#60f9ed"></stop><stop offset="1" stop-color="#60fac6"></stop></linearGradient><linearGradient x1="80.625" y1="96.75" x2="80.625" y2="123.625" gradientUnits="userSpaceOnUse" id="color-5_79054_gr5"><stop offset="0" stop-color="#60f9ed"></stop><stop offset="1" stop-color="#60fac6"></stop></linearGradient><linearGradient x1="51.0625" y1="96.75" x2="51.0625" y2="123.625" gradientUnits="userSpaceOnUse" id="color-6_79054_gr6"><stop offset="0" stop-color="#60f9ed"></stop><stop offset="1" stop-color="#60fac6"></stop></linearGradient><linearGradient x1="115.5625" y1="96.75" x2="115.5625" y2="123.625" gradientUnits="userSpaceOnUse" id="color-7_79054_gr7"><stop offset="0" stop-color="#60f9ed"></stop><stop offset="1" stop-color="#60fac6"></stop></linearGradient></defs><g fill="none" fill-rule="nonzero" stroke="none" stroke-width="none" stroke-linecap="butt" stroke-linejoin="miter" stroke-miterlimit="10" stroke-dasharray="" stroke-dashoffset="0" font-family="none" font-weight="none" font-size="none" text-anchor="none" style="mix-blend-mode: normal"><path d="M0,172v-172h172v172z" fill="none" stroke="none" stroke-width="1"></path><g><path d="M86,18.8125c-37.10663,0 -67.1875,30.08087 -67.1875,67.1875c0,37.10663 30.08087,67.1875 67.1875,67.1875c37.10663,0 67.1875,-30.08087 67.1875,-67.1875c0,-37.10663 -30.08087,-67.1875 -67.1875,-67.1875z" fill="none" stroke="url(#color-1)" stroke-width="5.375"></path><path d="M61.8125,91.375h-21.5v-5.375h21.5v-29.5625h-16.125v16.125h10.75v5.375h-10.75c-2.96431,0 -5.375,-2.41069 -5.375,-5.375v-16.125c0,-2.96431 2.41069,-5.375 5.375,-5.375h16.125c2.96431,0 5.375,2.41069 5.375,5.375v29.5625c0,2.96431 -2.41069,5.375 -5.375,5.375z" fill="url(#color-2_79054_gr2)" stroke="none" stroke-width="1"></path><path d="M126.3125,91.375h-21.5v-5.375h21.5v-29.5625h-16.125v16.125h10.75v5.375h-10.75c-2.96431,0 -5.375,-2.41069 -5.375,-5.375v-16.125c0,-2.96431 2.41069,-5.375 5.375,-5.375h16.125c2.96431,0 5.375,2.41069 5.375,5.375v29.5625c0,2.96431 -2.41069,5.375 -5.375,5.375z" fill="url(#color-3_79054_gr3)" stroke="none" stroke-width="1"></path><path d="M94.0625,77.9375h-16.125c-2.96431,0 -5.375,-2.41069 -5.375,-5.375v-16.125c0,-2.96431 2.41069,-5.375 5.375,-5.375h16.125c2.96431,0 5.375,2.41069 5.375,5.375v16.125c0,2.96431 -2.41069,5.375 -5.375,5.375zM77.9375,56.4375v16.125h16.125v-16.125z" fill="url(#color-4_79054_gr4)" stroke="none" stroke-width="1"></path><path d="M88.6875,123.625h-16.125c-2.96431,0 -5.375,-2.41069 -5.375,-5.375v-16.125c0,-2.96431 2.41069,-5.375 5.375,-5.375h16.125c2.96431,0 5.375,2.41069 5.375,5.375v16.125c0,2.96431 -2.41069,5.375 -5.375,5.375zM72.5625,102.125v16.125h16.125v-16.125z" fill="url(#color-5_79054_gr5)" stroke="none" stroke-width="1"></path><path d="M61.8125,102.125v-5.375h-16.125c-2.95625,0 -5.375,2.41875 -5.375,5.375v16.125c0,2.95625 2.41875,5.375 5.375,5.375h16.125v-5.375h-16.125v-16.125z" fill="url(#color-6_79054_gr6)" stroke="none" stroke-width="1"></path><path d="M131.6875,96.75v26.875h-5.375v-21.5h-8.0625v21.5h-5.375v-21.5h-8.0625v21.5h-5.375v-21.5c0,-2.95625 2.41875,-5.375 5.375,-5.375z" fill="url(#color-7_79054_gr7)" stroke="none" stroke-width="1"></path></g></g></svg>