<svg xmlns="http://www.w3.org/2000/svg" x="0px" y="0px"
width="64" height="64"
viewBox="0 0 172 172"
style=" fill:#000000;"><defs><linearGradient x1="86" y1="23.29256" x2="86" y2="148.53544" gradientUnits="userSpaceOnUse" id="color-1_44018_gr1"><stop offset="0" stop-color="#08e1cf"></stop><stop offset="1" stop-color="#07e398"></stop></linearGradient><linearGradient x1="129" y1="36.28125" x2="129" y2="59.34" gradientUnits="userSpaceOnUse" id="color-2_44018_gr2"><stop offset="0" stop-color="#60f9ed"></stop><stop offset="1" stop-color="#60fac6"></stop></linearGradient></defs><g fill="none" fill-rule="nonzero" stroke="none" stroke-width="1" stroke-linecap="butt" stroke-linejoin="miter" stroke-miterlimit="10" stroke-dasharray="" stroke-dashoffset="0" font-family="none" font-weight="none" font-size="none" text-anchor="none" style="mix-blend-mode: normal"><path d="M0,172v-172h172v172z" fill="none"></path><g><path d="M86,145.125c-16.23788,0 -67.1875,-34.56931 -67.1875,-83.3125c0,-19.264 15.6735,-34.9375 34.9375,-34.9375c14.50444,0 26.97444,8.88756 32.25,21.5c5.27556,-12.61244 17.74556,-21.5 32.25,-21.5c19.264,0 34.9375,15.6735 34.9375,34.9375c0,48.74319 -50.94962,83.3125 -67.1875,83.3125zM53.75,32.25c-16.29969,0 -29.5625,13.26281 -29.5625,29.5625c0,46.82969 49.85581,77.9375 61.8125,77.9375c11.95669,0 61.8125,-31.10781 61.8125,-77.9375c0,-16.29969 -13.26281,-29.5625 -29.5625,-29.5625c-16.29969,0 -29.5625,13.26281 -29.5625,29.5625h-5.375c0,-16.29969 -13.26281,-29.5625 -29.5625,-29.5625z" fill="url(#color-1_44018_gr1)"></path><path d="M118.25,37.625v0" fill="#7933ff"></path><path d="M139.75,59.125h-5.375c0,-8.89294 -7.23206,-16.125 -16.125,-16.125v-5.375c11.85456,0 21.5,9.64544 21.5,21.5z" fill="url(#color-2_44018_gr2)"></path></g></g></svg>