<svg xmlns="http://www.w3.org/2000/svg" width="64" height="64" viewBox="0 0 172 172"><defs><linearGradient x1="60.439" y1="62.261" x2="60.439" y2="110.276" gradientUnits="userSpaceOnUse" id="prefix__a"><stop offset="0" stop-color="#60f9ed"/><stop offset="1" stop-color="#60fac6"/></linearGradient><linearGradient x1="92.138" y1="18.813" x2="92.138" y2="153.639" gradientUnits="userSpaceOnUse" id="prefix__b"><stop offset="0" stop-color="#08e1cf"/><stop offset="1" stop-color="#07e398"/></linearGradient><linearGradient x1="92.316" y1="18.813" x2="92.316" y2="153.639" gradientUnits="userSpaceOnUse" id="prefix__c"><stop offset="0" stop-color="#08e1cf"/><stop offset="1" stop-color="#07e398"/></linearGradient></defs><g fill="none" stroke-miterlimit="10" font-family="none" font-weight="none" font-size="none" text-anchor="none" style="mix-blend-mode:normal"><path d="M0 172V0h172v172z"/><path d="M102.055 81.477L71.22 64.839c-1.804-.976-4.032.274-4.032 2.26v10.839a2.688 2.688 0 01-2.687 2.687H18.812a2.688 2.688 0 00-2.687 2.688v5.375a2.688 2.688 0 002.687 2.687H64.5a2.688 2.688 0 012.687 2.688V104.9c0 1.984 2.228 3.233 4.029 2.26l30.836-16.638c3.602-1.94 3.602-7.106.003-9.046z" fill="url(#prefix__a)"/><path d="M91.375 150.5c-30.003 0-56.489-21.229-62.97-50.477l5.245-1.166c5.945 26.81 30.221 46.268 57.725 46.268 32.602 0 59.125-26.523 59.125-59.125 0-32.602-26.523-59.125-59.125-59.125-27.504 0-51.78 19.457-57.725 46.268l-5.246-1.166C34.886 42.729 61.372 21.5 91.375 21.5c35.564 0 64.5 28.936 64.5 64.5s-28.936 64.5-64.5 64.5z" fill="url(#prefix__b)"/><path d="M91.375 139.75c-24.196 0-45.524-16.289-51.869-39.606l5.187-1.41c5.708 20.983 24.905 35.641 46.682 35.641 26.673 0 48.375-21.702 48.375-48.375s-21.702-48.375-48.375-48.375c-21.777 0-40.974 14.658-46.685 35.644l-5.186-1.41C45.85 48.538 67.182 32.25 91.375 32.25c29.638 0 53.75 24.112 53.75 53.75s-24.112 53.75-53.75 53.75z" fill="url(#prefix__c)"/></g></svg>