<svg xmlns="http://www.w3.org/2000/svg" viewBox="0 0 64 64"><linearGradient id="prefix__a" gradientUnits="userSpaceOnUse" x1="-353.635" y1="1217.426" x2="-353.635" y2="1352.253" gradientTransform="matrix(-.3721 0 0 .3721 -101.955 -446.002)"><stop offset="0" stop-color="#08e1cf"/><stop offset="1" stop-color="#07e398"/></linearGradient><path d="M30 54C17.9 54 8 44.1 8 32s9.9-22 22-22c9.3 0 17.6 5.9 20.6 14.5l2.5 1.4C50.4 15.5 40.9 8 30 8 16.8 8 6 18.8 6 32s10.8 24 24 24c10.9 0 20.5-7.5 23.3-17.9l-2.5 1.4C47.6 48 39.3 54 30 54z" fill="url(#prefix__a)"/><linearGradient id="prefix__b" gradientUnits="userSpaceOnUse" x1="41.487" y1="8.054" x2="41.487" y2="132.47"><stop offset="0" stop-color="#60f9ed"/><stop offset="1" stop-color="#60fac6"/></linearGradient><path d="M57 30.3L49.1 26l-2.7-1.4-.9-.5c-.2-.1-.3-.1-.5-.1-.5 0-1 .4-1 1v4c0 .6-.4 1-1 1H26c-.6 0-1 .4-1 1v2c0 .6.4 1 1 1h17c.6 0 1 .4 1 1v4c0 .6.5 1 1 1 .2 0 .4 0 .5-.1l.9-.5L49 38l8-4.3c1.3-.8 1.3-2.7 0-3.4z" fill="url(#prefix__b)"/><linearGradient id="prefix__c" gradientUnits="userSpaceOnUse" x1="-351.737" y1="1217.426" x2="-351.737" y2="1352.253" gradientTransform="matrix(-.3721 0 0 .3721 -101.955 -446.002)"><stop offset="0" stop-color="#08e1cf"/><stop offset="1" stop-color="#07e398"/></linearGradient><path d="M44.3 42.9C40.9 47.3 35.7 50 30 50c-9.9 0-18-8.1-18-18s8.1-18 18-18c5.7 0 11 2.8 14.3 7.1l1.8 1c.1 0 .1.1.2.1l1.5.8C44.5 16.4 37.7 12 30 12c-11 0-20 9-20 20s9 20 20 20c7.6 0 14.4-4.4 17.8-11l-3.5 1.9z" fill="url(#prefix__c)"/></svg>