<?xml version="1.0" encoding="UTF-8"?>
<svg xmlns="http://www.w3.org/2000/svg" xmlns:xlink="http://www.w3.org/1999/xlink" viewBox="0 0 128 128" width="128px" height="128px">
<defs>
<linearGradient id="linear0" gradientUnits="userSpaceOnUse" x1="45.660629" y1="99.35688" x2="45.660629" y2="112.686882" gradientTransform="matrix(0.744186,0,0,0.744186,0,0)">
<stop offset="0" style="stop-color:rgb(37.64706%,98.039216%,77.64706%);stop-opacity:1;"/>
<stop offset="1" style="stop-color:rgb(37.64706%,97.647059%,92.941177%);stop-opacity:1;"/>
</linearGradient>
<linearGradient id="linear1" gradientUnits="userSpaceOnUse" x1="99.813751" y1="112.230003" x2="99.813751" y2="119.244377" gradientTransform="matrix(0.744186,0,0,0.744186,0,0)">
<stop offset="0" style="stop-color:rgb(37.64706%,98.039216%,77.64706%);stop-opacity:1;"/>
<stop offset="1" style="stop-color:rgb(37.64706%,97.647059%,92.941177%);stop-opacity:1;"/>
</linearGradient>
<linearGradient id="linear2" gradientUnits="userSpaceOnUse" x1="119.902809" y1="122.550003" x2="119.902809" y2="135.342499" gradientTransform="matrix(0.744186,0,0,0.744186,0,0)">
<stop offset="0" style="stop-color:rgb(37.64706%,98.039216%,77.64706%);stop-opacity:1;"/>
<stop offset="1" style="stop-color:rgb(37.64706%,97.647059%,92.941177%);stop-opacity:1;"/>
</linearGradient>
<linearGradient id="linear3" gradientUnits="userSpaceOnUse" x1="86.008057" y1="21.497311" x2="86.008057" y2="147.8125" gradientTransform="matrix(0.744186,0,0,0.744186,0,0)">
<stop offset="0" style="stop-color:rgb(2.745098%,89.019608%,59.607846%);stop-opacity:1;"/>
<stop offset="1" style="stop-color:rgb(3.137255%,88.235295%,81.176472%);stop-opacity:1;"/>
</linearGradient>
</defs>
<g id="surface29636036">
<path style=" stroke:none;fill-rule:nonzero;fill:url(#linear0);" d="M 48 76.640625 C 41.699219 79.160156 33.019531 82.601562 31.820312 83 C 31.140625 83.28125 30.5 83.558594 29.921875 83.859375 L 19.960938 80.738281 L 39.359375 73.941406 Z M 48 76.640625 "/>
<path style=" stroke:none;fill-rule:nonzero;fill:url(#linear1);" d="M 78.558594 86.199219 C 74.238281 87.441406 71.539062 88.261719 70 88.738281 L 70 83.519531 Z M 78.558594 86.199219 "/>
<path style=" stroke:none;fill-rule:nonzero;fill:url(#linear2);" d="M 103.480469 94 L 103.019531 94.160156 L 83.820312 100.71875 L 74.980469 97.960938 C 81.460938 95.71875 91.558594 92.238281 94.539062 91.199219 Z M 103.480469 94 "/>
<path style=" stroke:none;fill-rule:nonzero;fill:url(#linear3);" d="M 121.976562 85.386719 C 121.667969 81.792969 118.15625 79 111.289062 76.863281 C 104.910156 74.726562 98.085938 73.777344 90.980469 74.042969 C 84.628906 74.289062 78.417969 75.308594 72.605469 77.050781 L 70.007812 77.714844 L 69.953125 38.28125 C 69.976562 38.261719 70.183594 38.15625 70.503906 38.15625 C 73.050781 38.15625 74.003906 40.820312 74.003906 42.5 L 74.003906 65.980469 C 74.003906 66.609375 74.296875 67.203125 74.800781 67.578125 C 75.132812 67.828125 78.226562 70 84.996094 70 C 90.929688 70 98 66.703125 98 51 C 98 38.195312 91.328125 28.902344 78.707031 24.128906 C 69.445312 20.625 51.238281 16.238281 50.46875 16.054688 C 49.871094 15.910156 49.242188 16.046875 48.761719 16.429688 C 48.285156 16.808594 48.003906 17.386719 48.003906 18 L 48.003906 66.601562 L 41.183594 69.074219 L 19.453125 76.617188 L 15.59375 78.039062 C 9.59375 80.726562 6.011719 84.648438 6.011719 88.53125 C 6.011719 92.949219 7.71875 96.511719 10.941406 98.828125 C 13.890625 100.953125 18.011719 102.007812 23.1875 102.007812 C 29.355469 102.007812 37.019531 100.503906 45.957031 97.503906 C 46.472656 97.335938 47.238281 97.074219 48.003906 96.8125 L 48.003906 102.460938 C 48.003906 103.339844 48.574219 104.113281 49.414062 104.375 L 67.410156 109.914062 C 67.605469 109.96875 67.800781 110 68 110 C 68.113281 110 68.21875 109.964844 68.328125 109.949219 C 68.441406 109.96875 68.546875 110 68.664062 110 C 68.875 110 69.09375 109.964844 69.304688 109.894531 L 109.371094 96.222656 L 112.289062 94.914062 C 117.011719 93.148438 122.378906 90.472656 121.976562 85.386719 Z M 70.003906 92.949219 C 71.179688 92.5625 75.425781 91.199219 84.933594 88.570312 C 91.304688 86.808594 94.996094 86.234375 97.003906 86.066406 C 96.007812 86.441406 94.792969 86.878906 93.367188 87.371094 C 89.964844 88.554688 75.371094 93.578125 70.003906 95.425781 Z M 48.003906 84.03125 C 45.777344 84.972656 40.960938 86.996094 37.578125 88.308594 C 31.601562 90.671875 29.078125 90.011719 28.308594 89.671875 C 28.835938 89.089844 30.136719 88.007812 33.183594 86.753906 C 34.449219 86.355469 43.316406 82.824219 48.003906 80.957031 Z M 44.699219 93.707031 C 29.738281 98.726562 18.574219 99.394531 13.277344 95.582031 C 11.078125 94.003906 10.011719 91.695312 10.011719 88.53125 C 10.011719 86.792969 12.269531 83.910156 17.101562 81.738281 L 42.523438 72.847656 L 48.003906 70.855469 L 48.003906 76.644531 C 41.707031 79.164062 33.023438 82.609375 31.824219 82.992188 C 26.945312 84.992188 24.246094 87.285156 24.015625 89.617188 C 23.921875 90.59375 24.28125 91.503906 24.992188 92.117188 C 25.605469 92.789062 27.148438 94.003906 30.410156 94.003906 C 32.507812 94.003906 35.3125 93.5 39.035156 92.03125 C 41.800781 90.960938 45.496094 89.425781 48 88.371094 L 48 92.582031 C 46.941406 92.949219 45.515625 93.441406 44.699219 93.707031 Z M 66 105.292969 L 52.003906 100.984375 L 51.953125 20.550781 C 57.328125 21.894531 70.238281 25.203125 77.292969 27.871094 C 88.378906 32.0625 94 39.847656 94 51 C 94 64.445312 88.859375 66 84.992188 66 C 81.367188 66 79.101562 65.273438 78 64.792969 L 78 42.5 C 78 38.398438 75.195312 34.15625 70.5 34.15625 C 67.890625 34.15625 66 35.945312 66 38.40625 Z M 110.769531 91.214844 L 107.90625 92.507812 L 70 105.429688 L 70.003906 99.652344 C 73.648438 98.398438 90.933594 92.453125 94.675781 91.152344 C 101.339844 88.847656 104.683594 87.691406 103.914062 84.796875 C 103.855469 84.566406 103.753906 84.351562 103.613281 84.15625 C 102.773438 82.964844 101.570312 82.347656 99.777344 82.113281 C 99.175781 81.980469 95.605469 81.46875 83.867188 84.714844 C 76.324219 86.800781 72.09375 88.085938 70.007812 88.746094 L 70.007812 81.84375 L 73.675781 80.902344 C 79.246094 79.234375 85.121094 78.273438 91.132812 78.039062 C 97.757812 77.796875 104.101562 78.671875 110.0625 80.671875 C 117.015625 82.828125 117.925781 84.929688 117.992188 85.714844 C 118.085938 86.882812 117.449219 88.714844 110.769531 91.214844 Z M 110.769531 91.214844 "/>
</g>
</svg>
