<svg xmlns="http://www.w3.org/2000/svg" width="64" height="64" viewBox="0 0 64 64">
	<path d="M0 64V0h64v64H0z" fill="none" />
	<linearGradient id="prefix__a" gradientUnits="userSpaceOnUse" x1="427.375" y1="-433.043" x2="427.375" y2="-456.558"
		gradientTransform="matrix(.3721 0 0 -.3721 -140.023 -115.465)">
		<stop offset="0" stop-color="#60f9ed" />
		<stop offset="1" stop-color="#60fac6" />
	</linearGradient>
	<path d="M15 46v6c0 1.1.9 2 2 2h6l-8-8z" fill="url(#prefix__a)" />
	<linearGradient id="prefix__b" gradientUnits="userSpaceOnUse" x1="32" y1="49.246" x2="32" y2="-90.399"
		gradientTransform="matrix(1 0 0 -1 0 66)">
		<stop offset="0" stop-color="#08e1cf" />
		<stop offset="1" stop-color="#07e398" />
	</linearGradient>
	<path fill="url(#prefix__b)" d="M28 18h8v2h-8z" />
	<linearGradient id="prefix__c" gradientUnits="userSpaceOnUse" x1="32" y1="49.246" x2="32" y2="-90.399"
		gradientTransform="matrix(1 0 0 -1 0 66)">
		<stop offset="0" stop-color="#08e1cf" />
		<stop offset="1" stop-color="#07e398" />
	</linearGradient>
	<path fill="url(#prefix__c)" d="M28 24h8v2h-8z" />
	<linearGradient id="prefix__d" gradientUnits="userSpaceOnUse" x1="462.313" y1="-327.066" x2="462.313" y2="-466.816"
		gradientTransform="matrix(.3721 0 0 -.3721 -140.023 -115.465)">
		<stop offset="0" stop-color="#08e1cf" />
		<stop offset="1" stop-color="#07e398" />
	</linearGradient>
	<path
		d="M49 18h-9v-7c0-2.8-2.2-5-5-5h-6c-2.8 0-5 2.2-5 5v7h-9c-2.2 0-4 1.8-4 4v31c0 2.8 2.2 5 5 5h32c2.8 0 5-2.2 5-5V22c0-2.2-1.8-4-4-4zm-23-7c0-1.7 1.3-3 3-3h6c1.7 0 3 1.3 3 3-.8-.6-1.9-1-3-1h-6c-1.1 0-2.2.4-3 1zm0 19c0 .6-.4 1-1 1s-1-.4-1-1 .4-1 1-1 1 .4 1 1zM15 20h9v4h-9c-1.1 0-2-.9-2-2s.9-2 2-2zm36 24h-4v2h4v2h-6v2h6v2h-8v2h7.8c-.4 1.2-1.5 2-2.8 2H16c-1.7 0-3-1.3-3-3V25.4c.6.3 1.3.6 2 .6h9v1.2c-1.2.4-2 1.5-2 2.8 0 1.7 1.3 3 3 3s3-1.3 3-3c0-1.3-.8-2.4-2-2.8V15c0-1.7 1.3-3 3-3h6c1.7 0 3 1.3 3 3v12.2c-1.2.4-2 1.5-2 2.8 0 1.7 1.3 3 3 3s3-1.3 3-3c0-1.3-.8-2.4-2-2.8V26h9c.7 0 1.4-.2 2-.6V44zM40 30c0 .6-.4 1-1 1s-1-.4-1-1 .4-1 1-1 1 .4 1 1zm9-6h-9v-4h9c1.1 0 2 .9 2 2s-.9 2-2 2z"
		fill="url(#prefix__d)" />
	<linearGradient id="prefix__e" gradientUnits="userSpaceOnUse" x1="32" y1="34" x2="32" y2="50.586">
		<stop offset="0" stop-color="#08e1cf" />
		<stop offset="1" stop-color="#07e398" />
	</linearGradient>
	<path
		d="M29.2 34v15.6l3.4 1v-13c0-.4 0-.6.2-.7.1-.2.3-.2.5-.1.5.2.8.6.8 1.3v5.2c1.1.6 2.1.6 2.8 0 .7-.6 1.1-1.4 1.1-2.8 0-1.5-.3-2.4-.9-3.2-.6-.7-1.6-1.4-3.1-1.9-2-.6-3.6-1.1-4.8-1.4zm-1 9.7l-4.3 1.5-.7.3c-1 .5-1.6.9-1.6 1.4.1.6.3 1.3 1.7 1.8 1.3.5 2.3.7 5-.1v-1.7c-2.5.8-2.9.7-3.3.6-.4-.2-.4-.4-.3-.5.3-.2 1.3-.6 1.3-.6l2.2-.7v-2zm9.6.8h-.9c-1 0-2 .2-3.1.5v2l2.1-.8 1.1-.4s.5-.1.8-.2c.5-.1 1 .1 1 .1.3.1.3.1.5.3.1.2-.1.3-.6.5l-1 .4-3.7 1.4v2l1.7-.6 4.7-1.7.6-.3c1.1-.4 1.6-.8 1.5-1.4 0-.6-.7-.9-1.8-1.3-1.1-.3-2-.5-2.9-.5z"
		fill="url(#prefix__e)" />
</svg>