<svg xmlns="http://www.w3.org/2000/svg" x="0px" y="0px"
width="64" height="64"
viewBox="0 0 172 172"
style=" fill:#000000;"><defs><linearGradient x1="86" y1="26.875" x2="86" y2="61.8125" gradientUnits="userSpaceOnUse" id="color-1_Sc8xDbvZrlSW_gr1"><stop offset="0" stop-color="#60f9ed"></stop><stop offset="1" stop-color="#60fac6"></stop></linearGradient><linearGradient x1="86" y1="19.72625" x2="86" y2="152.17163" gradientUnits="userSpaceOnUse" id="color-2_Sc8xDbvZrlSW_gr2"><stop offset="0" stop-color="#08e1cf"></stop><stop offset="1" stop-color="#07e398"></stop></linearGradient><linearGradient x1="45.6875" y1="19.72625" x2="45.6875" y2="152.17163" gradientUnits="userSpaceOnUse" id="color-3_Sc8xDbvZrlSW_gr3"><stop offset="0" stop-color="#08e1cf"></stop><stop offset="1" stop-color="#07e398"></stop></linearGradient><linearGradient x1="126.3125" y1="19.72625" x2="126.3125" y2="152.17163" gradientUnits="userSpaceOnUse" id="color-4_Sc8xDbvZrlSW_gr4"><stop offset="0" stop-color="#08e1cf"></stop><stop offset="1" stop-color="#07e398"></stop></linearGradient><linearGradient x1="43" y1="19.72625" x2="43" y2="152.17163" gradientUnits="userSpaceOnUse" id="color-5_Sc8xDbvZrlSW_gr5"><stop offset="0" stop-color="#08e1cf"></stop><stop offset="1" stop-color="#07e398"></stop></linearGradient><linearGradient x1="32.25" y1="19.72625" x2="32.25" y2="152.17163" gradientUnits="userSpaceOnUse" id="color-6_Sc8xDbvZrlSW_gr6"><stop offset="0" stop-color="#08e1cf"></stop><stop offset="1" stop-color="#07e398"></stop></linearGradient><linearGradient x1="43" y1="19.72625" x2="43" y2="152.17163" gradientUnits="userSpaceOnUse" id="color-7_Sc8xDbvZrlSW_gr7"><stop offset="0" stop-color="#08e1cf"></stop><stop offset="1" stop-color="#07e398"></stop></linearGradient><linearGradient x1="53.75" y1="19.72625" x2="53.75" y2="152.17163" gradientUnits="userSpaceOnUse" id="color-8_Sc8xDbvZrlSW_gr8"><stop offset="0" stop-color="#08e1cf"></stop><stop offset="1" stop-color="#07e398"></stop></linearGradient><linearGradient x1="32.25" y1="19.72625" x2="32.25" y2="152.17163" gradientUnits="userSpaceOnUse" id="color-9_Sc8xDbvZrlSW_gr9"><stop offset="0" stop-color="#08e1cf"></stop><stop offset="1" stop-color="#07e398"></stop></linearGradient><linearGradient x1="139.75" y1="19.72625" x2="139.75" y2="152.17163" gradientUnits="userSpaceOnUse" id="color-10_Sc8xDbvZrlSW_gr10"><stop offset="0" stop-color="#08e1cf"></stop><stop offset="1" stop-color="#07e398"></stop></linearGradient><linearGradient x1="129" y1="19.72625" x2="129" y2="152.17163" gradientUnits="userSpaceOnUse" id="color-11_Sc8xDbvZrlSW_gr11"><stop offset="0" stop-color="#08e1cf"></stop><stop offset="1" stop-color="#07e398"></stop></linearGradient><linearGradient x1="139.75" y1="19.72625" x2="139.75" y2="152.17163" gradientUnits="userSpaceOnUse" id="color-12_Sc8xDbvZrlSW_gr12"><stop offset="0" stop-color="#08e1cf"></stop><stop offset="1" stop-color="#07e398"></stop></linearGradient><linearGradient x1="118.25" y1="19.72625" x2="118.25" y2="152.17163" gradientUnits="userSpaceOnUse" id="color-13_Sc8xDbvZrlSW_gr13"><stop offset="0" stop-color="#08e1cf"></stop><stop offset="1" stop-color="#07e398"></stop></linearGradient></defs><g fill="none" fill-rule="nonzero" stroke="none" stroke-width="1" stroke-linecap="butt" stroke-linejoin="miter" stroke-miterlimit="10" stroke-dasharray="" stroke-dashoffset="0" font-family="none" font-weight="none" font-size="none" text-anchor="none" style="mix-blend-mode: normal"><path d="M0,172v-172h172v172z" fill="none"></path><g><path d="M140.31438,61.8125h-108.62875l14.24375,-30.315c1.34375,-2.795 4.1925,-4.6225 7.31,-4.6225h65.52125c3.1175,0 5.96625,1.8275 7.31,4.6225z" fill="url(#color-1_Sc8xDbvZrlSW_gr1)"></path><path d="M153.63631,45.6875h-9.01925l-8.82844,-18.75875c-3.08525,-6.56287 -9.76637,-10.80375 -17.02262,-10.80375h-65.532c-7.25356,0 -13.93738,4.24087 -17.02262,10.80375l-8.82844,18.75875h-9.01925c-9.57556,0 -12.98869,5.88025 -12.98869,11.38156c0,3.38894 1.66625,7.43094 9.6105,7.43094h3.827v26.875c0,0 0.04838,13.97231 0.05375,13.96963c0.28488,5.676 4.95038,10.21787 10.69625,10.21787h0.4945c1.11262,3.12019 4.06887,5.375 7.568,5.375h10.75c3.49912,0 6.45538,-2.25481 7.568,-5.375h60.11669c1.11262,3.12019 4.06888,5.375 7.568,5.375h10.75c3.49912,0 6.45538,-2.25481 7.568,-5.375h0.49181c5.92863,0 10.75,-4.82137 10.75,-10.75v-40.3125h3.827c7.94425,0 9.6105,-4.042 9.6105,-7.43094c0,-5.50131 -3.41313,-11.38156 -12.98869,-11.38156zM21.05925,59.125h-6.07375c-4.2355,0 -4.2355,-1.1395 -4.2355,-2.05594c0,-3.98556 2.56119,-6.00656 7.61369,-6.00656h6.49031zM126.3125,110.1875h-80.625v-2.6875c0,-1.4835 1.204,-2.6875 2.6875,-2.6875h75.25c1.4835,0 2.6875,1.204 2.6875,2.6875zM147.8125,96.75h-10.75v5.375h10.75v2.6875c0,2.96431 -2.41069,5.375 -5.375,5.375h-10.75v-2.6875c0,-4.44512 -3.61738,-8.0625 -8.0625,-8.0625h-75.25c-4.44512,0 -8.0625,3.61738 -8.0625,8.0625v2.6875h-10.75c-2.96431,0 -5.375,-2.41069 -5.375,-5.375v-2.6875h10.75v-5.375h-10.75v-5.375v-26.273l16.88825,-35.88619c2.20375,-4.687 6.97675,-7.71581 12.15825,-7.71581h65.53469c5.1815,0 9.95181,3.02881 12.15556,7.71581l16.88825,35.88619zM157.0145,59.125h-6.07375l-3.79475,-8.0625h6.49031c5.0525,0 7.61369,2.021 7.61369,6.00656c0,0.91644 0,2.05594 -4.2355,2.05594z" fill="url(#color-2_Sc8xDbvZrlSW_gr2)"></path><path d="M53.75,67.1875h-16.125c-4.44512,0 -8.0625,3.61737 -8.0625,8.0625v5.375c0,4.44513 3.61738,8.0625 8.0625,8.0625h16.125c4.44512,0 8.0625,-3.61737 8.0625,-8.0625v-5.375c0,-4.44513 -3.61738,-8.0625 -8.0625,-8.0625zM56.4375,80.625c0,1.4835 -1.204,2.6875 -2.6875,2.6875h-16.125c-1.4835,0 -2.6875,-1.204 -2.6875,-2.6875v-5.375c0,-1.4835 1.204,-2.6875 2.6875,-2.6875h16.125c1.4835,0 2.6875,1.204 2.6875,2.6875z" fill="url(#color-3_Sc8xDbvZrlSW_gr3)"></path><path d="M110.1875,75.25v5.375c0,4.44513 3.61738,8.0625 8.0625,8.0625h16.125c4.44512,0 8.0625,-3.61737 8.0625,-8.0625v-5.375c0,-4.44513 -3.61738,-8.0625 -8.0625,-8.0625h-16.125c-4.44513,0 -8.0625,3.61737 -8.0625,8.0625zM137.0625,75.25v5.375c0,1.4835 -1.204,2.6875 -2.6875,2.6875h-16.125c-1.4835,0 -2.6875,-1.204 -2.6875,-2.6875v-5.375c0,-1.4835 1.204,-2.6875 2.6875,-2.6875h16.125c1.4835,0 2.6875,1.204 2.6875,2.6875z" fill="url(#color-4_Sc8xDbvZrlSW_gr4)"></path><rect x="15" y="56" transform="scale(2.6875,2.6875)" width="2" height="2" fill="url(#color-5_Sc8xDbvZrlSW_gr5)"></rect><rect x="11" y="51" transform="scale(2.6875,2.6875)" width="2" height="2" fill="url(#color-6_Sc8xDbvZrlSW_gr6)"></rect><rect x="15" y="47" transform="scale(2.6875,2.6875)" width="2" height="8" fill="url(#color-7_Sc8xDbvZrlSW_gr7)"></rect><rect x="19" y="46" transform="scale(2.6875,2.6875)" width="2" height="7" fill="url(#color-8_Sc8xDbvZrlSW_gr8)"></rect><rect x="11" y="46" transform="scale(2.6875,2.6875)" width="2" height="4" fill="url(#color-9_Sc8xDbvZrlSW_gr9)"></rect><rect x="51" y="54" transform="scale(2.6875,2.6875)" width="2" height="2" fill="url(#color-10_Sc8xDbvZrlSW_gr10)"></rect><rect x="47" y="47" transform="scale(2.6875,2.6875)" width="2" height="11" fill="url(#color-11_Sc8xDbvZrlSW_gr11)"></rect><rect x="51" y="48" transform="scale(2.6875,2.6875)" width="2" height="5" fill="url(#color-12_Sc8xDbvZrlSW_gr12)"></rect><rect x="43" y="49" transform="scale(2.6875,2.6875)" width="2" height="6" fill="url(#color-13_Sc8xDbvZrlSW_gr13)"></rect></g></g></svg>