<svg xmlns="http://www.w3.org/2000/svg" x="0px" y="0px"
width="64" height="64"
viewBox="-10 -5 192 172"
style=" fill:#000000;"><defs><linearGradient x1="118.05381" y1="16.75388" x2="118.05381" y2="89.87" gradientUnits="userSpaceOnUse" id="color-1_pwfxuRRyvEAG_gr1"><stop offset="0" stop-color="#60f9ed"></stop><stop offset="1" stop-color="#60fac6"></stop></linearGradient><linearGradient x1="86.00269" y1="4.74613" x2="86.00269" y2="159.22094" gradientUnits="userSpaceOnUse" id="color-2_pwfxuRRyvEAG_gr2"><stop offset="0" stop-color="#08e1cf"></stop><stop offset="1" stop-color="#07e398"></stop></linearGradient></defs><g fill="none" fill-rule="nonzero" stroke="none" stroke-width="1" stroke-linecap="butt" stroke-linejoin="miter" stroke-miterlimit="10" stroke-dasharray="" stroke-dashoffset="0" font-family="none" font-weight="none" font-size="none" text-anchor="none" style="mix-blend-mode: normal"><path d="M0,172v-172h172v172z" fill="none"></path><g id="Layer_1"><path d="M92.18125,97.01875l-7.525,-7.525c-0.5375,-0.5375 -0.5375,-1.34375 0,-1.88125l65.0375,-65.30625c0.80625,-0.80625 2.41875,-0.26875 2.41875,1.075v13.4375c0,1.34375 -0.5375,2.6875 -1.6125,3.7625l-56.4375,56.4375c-0.5375,0.5375 -1.34375,0.5375 -1.88125,0z" fill="url(#color-1_pwfxuRRyvEAG_gr1)"></path><path d="M154.53125,9.40625h-20.69375c-3.49375,0 -6.9875,1.34375 -9.40625,4.03125l-61.8125,61.8125c-3.225,-1.88125 -7.525,-1.88125 -10.75,0l-2.15,-2.15c-3.225,-3.225 -8.33125,-3.225 -11.2875,0l-7.79375,7.525c-3.225,3.225 -3.225,8.33125 0,11.2875l3.7625,3.7625c5.10625,5.10625 5.10625,13.70625 0,19.08125l-15.31875,15.31875l-1.88125,-1.88125c-1.075,-1.075 -2.6875,-1.075 -3.7625,0c-5.375,5.10625 -5.375,13.70625 0,19.08125l11.2875,11.2875c2.6875,2.6875 6.18125,4.03125 9.40625,4.03125c3.49375,0 6.9875,-1.34375 9.40625,-4.03125c1.075,-1.075 1.075,-2.6875 0,-3.7625l-1.88125,-1.88125l15.31875,-15.31875c5.375,-5.10625 13.70625,-5.10625 19.08125,0l3.7625,3.7625c1.6125,1.6125 3.7625,2.41875 5.64375,2.41875c2.15,0 4.03125,-0.80625 5.64375,-2.41875l7.525,-7.525c3.225,-3.225 3.225,-8.33125 0,-11.2875l-1.88125,-2.41875c1.075,-1.6125 1.6125,-3.49375 1.6125,-5.375c0,-1.88125 -0.5375,-3.7625 -1.6125,-5.375l61.8125,-61.8125c2.41875,-2.41875 4.03125,-5.9125 4.03125,-9.40625v-20.69375c0,-4.3 -3.7625,-8.0625 -8.0625,-8.0625zM37.625,119.05625l0.5375,-0.5375l15.31875,15.31875l-0.5375,0.5375l-5.375,5.375l-15.31875,-15.31875zM28.75625,154.8l-11.2875,-11.2875c-2.41875,-2.41875 -2.95625,-6.18125 -1.6125,-9.1375l22.0375,22.0375c-2.95625,1.34375 -6.71875,0.80625 -9.1375,-1.6125zM22.84375,133.8375l5.64375,-5.64375l15.31875,15.31875l-5.64375,5.64375zM57.78125,130.6125l-16.39375,-16.39375c1.6125,-2.95625 2.41875,-6.18125 2.41875,-9.1375l23.1125,23.1125c-3.225,0 -6.45,0.80625 -9.1375,2.41875zM95.1375,130.075l-7.525,7.525c-1.075,1.075 -2.6875,1.075 -3.7625,0l-49.45,-49.45c-1.075,-1.075 -1.075,-2.6875 0,-3.7625l7.525,-7.525c1.075,-1.075 2.6875,-1.075 3.7625,0l7.525,7.525l-3.7625,3.7625l3.7625,3.7625l3.7625,-3.7625l3.7625,3.7625l-5.64375,5.64375l3.7625,3.7625l5.64375,-5.64375l3.7625,3.7625l-7.525,7.525l3.7625,3.7625l7.525,-7.525l3.7625,3.7625l-5.375,5.9125l3.7625,3.7625l5.64375,-5.64375l3.7625,3.7625l-3.7625,3.7625l3.7625,3.7625l3.7625,-3.7625l7.525,7.525c1.34375,1.075 1.34375,2.95625 0.26875,4.03125zM55.9,79.28125c1.88125,-0.5375 3.7625,0 5.10625,1.34375l30.36875,30.36875c1.075,1.075 1.6125,2.41875 1.6125,3.7625c0,0.5375 0,1.075 -0.26875,1.34375zM157.21875,38.1625c0,2.15 -0.80625,4.3 -2.41875,5.64375l-61.54375,61.54375l-26.60625,-26.60625l61.54375,-61.54375c1.6125,-1.6125 3.49375,-2.41875 5.64375,-2.41875h20.69375c1.6125,0 2.6875,1.075 2.6875,2.6875z" fill="url(#color-2_pwfxuRRyvEAG_gr2)"></path></g></g></svg>