<svg xmlns="http://www.w3.org/2000/svg" x="0px" y="0px"
width="64" height="64"
viewBox="0 0 172 172"
style=" fill:#000000;"><defs><linearGradient x1="55.09106" y1="34.94019" x2="55.09106" y2="63.382" gradientUnits="userSpaceOnUse" id="color-1_44045_gr1"><stop offset="0" stop-color="#60f9ed"></stop><stop offset="1" stop-color="#60fac6"></stop></linearGradient><linearGradient x1="65.87331" y1="14.16313" x2="69.90456" y2="160.65069" gradientUnits="userSpaceOnUse" id="color-2_44045_gr2"><stop offset="0" stop-color="#08e1cf"></stop><stop offset="1" stop-color="#07e398"></stop></linearGradient><linearGradient x1="83.60544" y1="13.67669" x2="87.63669" y2="160.16156" gradientUnits="userSpaceOnUse" id="color-3_44045_gr3"><stop offset="0" stop-color="#08e1cf"></stop><stop offset="1" stop-color="#07e398"></stop></linearGradient></defs><g fill="none" fill-rule="nonzero" stroke="none" stroke-width="1" stroke-linecap="butt" stroke-linejoin="miter" stroke-miterlimit="10" stroke-dasharray="" stroke-dashoffset="0" font-family="none" font-weight="none" font-size="none" text-anchor="none" style="mix-blend-mode: normal"><path d="M0,172v-172h172v172z" fill="none"></path><g><path d="M67.1875,37.62769c-13.4375,0 -24.19287,10.74731 -24.19287,24.18481h24.19288z" fill="url(#color-1_44045_gr1)"></path><path d="M67.18481,26.875c-19.26669,0 -34.94287,15.6735 -34.94287,34.94288c0,19.26938 15.67619,34.94288 34.94288,34.94288c19.26669,0 34.94288,-15.6735 34.94288,-34.94288c0,-19.26938 -15.67619,-34.94288 -34.94287,-34.94288zM67.18481,91.38306c-16.30237,0 -29.56519,-13.26281 -29.56519,-29.56519c0,-16.30237 13.26281,-29.56519 29.56519,-29.56519c16.30237,0 29.56519,13.26281 29.56519,29.56519c0,16.30237 -13.26281,29.56519 -29.56519,29.56519z" fill="url(#color-2_44045_gr2)"></path><path d="M147.19438,130.50231l-23.521,-26.5095c-1.93231,-2.18225 -5.36156,-2.4725 -7.64594,-0.65306l-6.68112,5.30244l-11.08594,-13.42137c8.96819,-8.34738 14.61731,-20.21269 14.61731,-33.40294c0,-25.19531 -20.49756,-45.69287 -45.69288,-45.69287c-25.19531,0 -45.69287,20.49756 -45.69287,45.69287c0,25.19531 20.49756,45.69287 45.69287,45.69287c10.07544,0 19.36881,-3.31637 26.93144,-8.86338l11.01606,13.33806l-6.35863,5.04444c-1.16637,0.9245 -1.87587,2.236 -2.00487,3.69263c-0.12631,1.44856 0.34131,2.84875 1.31688,3.94794l23.52369,26.51219c2.74662,3.096 6.68919,4.69237 10.65594,4.69237c3.14169,0 6.2995,-1.00244 8.88756,-3.05569l4.31881,-3.42388c2.9025,-2.30587 4.67356,-5.55775 4.988,-9.15362c0.30906,-3.55825 -0.84925,-7.01706 -3.26531,-9.7395zM26.86694,61.81787c0,-22.231 18.08688,-40.31787 40.31787,-40.31787c22.231,0 40.31788,18.08688 40.31788,40.31788c0,22.231 -18.08419,40.31788 -40.31787,40.31788c-22.23369,0 -40.31787,-18.08688 -40.31787,-40.31788zM130.72538,120.03988l-17.38006,13.79494l-3.96944,-4.4505l17.3935,-13.803zM119.37338,107.54838c0.03494,-0.02688 0.08063,-0.03763 0.13169,-0.03763c0.05912,0 0.12094,0.01881 0.14781,0.04838l3.54481,3.99631l-17.40425,13.81106l-3.6765,-4.12262zM142.12844,145.18413l-4.31881,3.42388c-3.65769,2.90519 -9.12137,2.45906 -12.17975,-0.99169l-8.70481,-9.761l17.372,-13.78687l8.87681,10.00288c1.42437,1.60712 2.10969,3.63081 1.92962,5.70288c-0.18275,2.11237 -1.24162,4.03394 -2.97506,5.40994z" fill="url(#color-3_44045_gr3)"></path></g></g></svg>