<svg xmlns="http://www.w3.org/2000/svg" width="64" height="64" viewBox="0 0 172 172"><defs><linearGradient x1="55.091" y1="34.94" x2="55.091" y2="63.382" gradientUnits="userSpaceOnUse" id="prefix__a"><stop offset="0" stop-color="#60f9ed"/><stop offset="1" stop-color="#60fac6"/></linearGradient><linearGradient x1="65.873" y1="14.163" x2="69.905" y2="160.651" gradientUnits="userSpaceOnUse" id="prefix__b"><stop offset="0" stop-color="#08e1cf"/><stop offset="1" stop-color="#07e398"/></linearGradient><linearGradient x1="83.605" y1="13.677" x2="87.637" y2="160.162" gradientUnits="userSpaceOnUse" id="prefix__c"><stop offset="0" stop-color="#08e1cf"/><stop offset="1" stop-color="#07e398"/></linearGradient></defs><g fill="none" stroke-miterlimit="10" font-family="none" font-weight="none" font-size="none" text-anchor="none" style="mix-blend-mode:normal"><path d="M0 172V0h172v172z"/><path d="M67.188 37.628c-13.438 0-24.193 10.747-24.193 24.184h24.193z" fill="url(#prefix__a)"/><path d="M67.185 26.875c-19.267 0-34.943 15.674-34.943 34.943 0 19.27 15.676 34.943 34.943 34.943 19.267 0 34.943-15.674 34.943-34.943 0-19.27-15.676-34.943-34.943-34.943zm0 64.508c-16.303 0-29.565-13.263-29.565-29.565s13.262-29.565 29.565-29.565c16.302 0 29.565 13.262 29.565 29.565 0 16.302-13.263 29.565-29.565 29.565z" fill="url(#prefix__b)"/><path d="M147.194 130.502l-23.52-26.51c-1.933-2.181-5.362-2.472-7.647-.652l-6.68 5.302L98.26 95.221c8.969-8.348 14.618-20.213 14.618-33.403 0-25.195-20.498-45.693-45.693-45.693-25.196 0-45.693 20.498-45.693 45.693 0 25.195 20.497 45.693 45.693 45.693 10.075 0 19.369-3.317 26.931-8.864l11.016 13.338-6.358 5.045a5.267 5.267 0 00-2.005 3.692 5.212 5.212 0 001.317 3.948l23.523 26.513c2.747 3.096 6.69 4.692 10.656 4.692 3.142 0 6.3-1.002 8.888-3.056l4.319-3.424c2.902-2.305 4.673-5.557 4.988-9.153.309-3.558-.85-7.017-3.266-9.74zM26.867 61.818c0-22.231 18.087-40.318 40.318-40.318 22.23 0 40.318 18.087 40.318 40.318 0 22.23-18.084 40.318-40.318 40.318-22.234 0-40.318-18.087-40.318-40.318zm103.858 58.222l-17.38 13.795-3.97-4.45 17.394-13.804zm-11.352-12.492a.212.212 0 01.132-.037c.06 0 .121.019.148.048l3.545 3.996-17.405 13.811-3.676-4.122zm22.755 37.636l-4.318 3.424c-3.658 2.905-9.122 2.46-12.18-.992l-8.705-9.76 17.372-13.788 8.877 10.003c1.424 1.607 2.11 3.631 1.93 5.703-.183 2.113-1.242 4.034-2.976 5.41z" fill="url(#prefix__c)"/></g></svg>