<svg xmlns="http://www.w3.org/2000/svg" x="0px" y="0px"
width="64" height="64"
viewBox="0 0 172 172"
style=" fill:#000000;"><defs><linearGradient x1="141.31144" y1="43.85731" x2="141.31144" y2="56.89975" gradientUnits="userSpaceOnUse" id="color-1_1JZrTEkKxRNC_gr1"><stop offset="0" stop-color="#60f9ed"></stop><stop offset="1" stop-color="#60fac6"></stop></linearGradient><linearGradient x1="141.6635" y1="111.44525" x2="141.6635" y2="122.76769" gradientUnits="userSpaceOnUse" id="color-2_1JZrTEkKxRNC_gr2"><stop offset="0" stop-color="#60f9ed"></stop><stop offset="1" stop-color="#60fac6"></stop></linearGradient><linearGradient x1="30.68856" y1="112.64656" x2="30.68856" y2="123.7325" gradientUnits="userSpaceOnUse" id="color-3_1JZrTEkKxRNC_gr3"><stop offset="0" stop-color="#60f9ed"></stop><stop offset="1" stop-color="#60fac6"></stop></linearGradient><linearGradient x1="30.3365" y1="44.71463" x2="30.3365" y2="58.18438" gradientUnits="userSpaceOnUse" id="color-4_1JZrTEkKxRNC_gr4"><stop offset="0" stop-color="#60f9ed"></stop><stop offset="1" stop-color="#60fac6"></stop></linearGradient><linearGradient x1="86" y1="141.80863" x2="86" y2="149.52981" gradientUnits="userSpaceOnUse" id="color-5_1JZrTEkKxRNC_gr5"><stop offset="0" stop-color="#60f9ed"></stop><stop offset="1" stop-color="#60fac6"></stop></linearGradient><linearGradient x1="86" y1="21.21513" x2="86" y2="28.079" gradientUnits="userSpaceOnUse" id="color-6_1JZrTEkKxRNC_gr6"><stop offset="0" stop-color="#60f9ed"></stop><stop offset="1" stop-color="#60fac6"></stop></linearGradient><linearGradient x1="86" y1="64.09956" x2="86" y2="106.81469" gradientUnits="userSpaceOnUse" id="color-7_1JZrTEkKxRNC_gr7"><stop offset="0" stop-color="#60f9ed"></stop><stop offset="1" stop-color="#60fac6"></stop></linearGradient><linearGradient x1="86" y1="15.38056" x2="86" y2="151.27131" gradientUnits="userSpaceOnUse" id="color-8_1JZrTEkKxRNC_gr8"><stop offset="0" stop-color="#08e1cf"></stop><stop offset="1" stop-color="#07e398"></stop></linearGradient></defs><g fill="none" fill-rule="nonzero" stroke="none" stroke-width="1" stroke-linecap="butt" stroke-linejoin="miter" stroke-miterlimit="10" stroke-dasharray="" stroke-dashoffset="0" font-family="none" font-weight="none" font-size="none" text-anchor="none" style="mix-blend-mode: normal"><path d="M0,172v-172h172v172z" fill="none"></path><g><path d="M132.53675,56.89706l-1.20131,-21.43819l19.94931,31.90063z" fill="url(#color-1_1JZrTEkKxRNC_gr1)"></path><path d="M131.85412,136.0735l0.98094,-21.45162l18.63781,-10.65325z" fill="url(#color-2_1JZrTEkKxRNC_gr2)"></path><path d="M20.71525,104.6405l18.748,10.46244l1.20131,21.43819z" fill="url(#color-3_1JZrTEkKxRNC_gr3)"></path><path d="M40.14588,35.9265l-0.98094,21.45163l-18.63781,10.65325z" fill="url(#color-4_1JZrTEkKxRNC_gr4)"></path><g fill="url(#color-5_1JZrTEkKxRNC_gr5)"><path d="M67.1875,151.23369l18.8125,-10.34419l18.8125,10.34419z"></path></g><g fill="url(#color-6_1JZrTEkKxRNC_gr6)"><path d="M67.1875,20.76631h37.625l-18.8125,10.34419z"></path></g><g fill="url(#color-7_1JZrTEkKxRNC_gr7)"><path d="M67.1875,96.57531v-21.15063l18.8125,-10.92469l18.8125,10.92469v21.15063l-18.8125,10.92469z"></path></g><g fill="url(#color-8_1JZrTEkKxRNC_gr8)"><path d="M86,16.125c-38.53069,0 -69.875,31.34431 -69.875,69.875c0,38.53069 31.34431,69.875 69.875,69.875c38.53069,0 69.875,-31.34431 69.875,-69.875c0,-38.53069 -31.34431,-69.875 -69.875,-69.875zM122.23019,111.17919l-1.33031,29.01694c-2.193,1.41631 -4.46662,2.71706 -6.83163,3.86462l-25.48287,-14.018c-1.62325,-0.89225 -3.56094,-0.89225 -5.17881,0l-25.48287,14.018c-2.16344,-1.05081 -4.25163,-2.22794 -6.27262,-3.50719l-1.62594,-29.00888c-0.10481,-1.85169 -1.13412,-3.49375 -2.74394,-4.38869l-25.39956,-14.17925c-0.24456,-2.28975 -0.38163,-4.61712 -0.38163,-6.97675c0,-2.13388 0.11019,-4.24088 0.31444,-6.321l25.25712,-14.43725c1.60444,-0.91912 2.61494,-2.57194 2.69825,-4.42094l1.33031,-29.01694c2.193,-1.41631 4.46663,-2.71706 6.83163,-3.86462l25.48288,14.018c0.81162,0.44613 1.70119,0.66919 2.59075,0.66919c0.88956,0 1.77913,-0.22306 2.58806,-0.66919l25.48287,-14.018c2.16344,1.05081 4.25163,2.22794 6.27263,3.50719l1.62594,29.00888c0.10481,1.85169 1.13412,3.49375 2.74394,4.38869l25.39956,14.17925c0.24456,2.28975 0.38162,4.61713 0.38162,6.97675c0,2.13387 -0.11019,4.24088 -0.31444,6.321l-25.25712,14.43725c-1.60175,0.91913 -2.61225,2.57463 -2.69825,4.42094zM149.00844,72.24806l-21.672,-12.09644l-1.38675,-24.73306c11.49712,9.09719 19.82837,22.016 23.05875,36.8295zM107.74994,25.284l-21.74994,11.96206l-21.74994,-11.96206c6.79937,-2.44294 14.12013,-3.784 21.74994,-3.784c7.62981,0 14.95056,1.34106 21.74994,3.784zM45.53431,35.82438l-1.13144,24.74919l-21.56181,12.32756c3.07719,-14.86456 11.29287,-27.864 22.69325,-37.07675zM22.99156,99.75194l21.672,12.09644l1.38675,24.73306c-11.49712,-9.09719 -19.82837,-22.016 -23.05875,-36.8295zM64.25006,146.716l21.74994,-11.96206l21.74994,11.96206c-6.79938,2.44294 -14.12013,3.784 -21.74994,3.784c-7.62981,0 -14.95056,-1.34106 -21.74994,-3.784zM126.46569,136.17563l1.13144,-24.74919l21.56181,-12.32756c-3.07719,14.86456 -11.29288,27.864 -22.69325,37.07675z"></path><path d="M115.2185,66.75481l-26.62775,-14.64688c-1.62325,-0.89225 -3.56094,-0.89225 -5.17881,0l-28.02525,15.41281c-0.86,0.473 -1.39481,1.376 -1.39481,2.35425v30.66169c0,1.95919 1.06694,3.76519 2.78694,4.7085l26.62775,14.64688c0.81162,0.44612 1.70119,0.66919 2.59075,0.66919c0.88956,0 1.77912,-0.22306 2.58806,-0.66919l26.63044,-14.64419c1.72,-0.946 2.78694,-2.74931 2.78694,-4.71119v-29.07338c0.00269,-1.96187 -1.06425,-3.76788 -2.78425,-4.7085zM112.63044,100.53669l-26.63044,14.64688l-26.63044,-14.64688v-29.07337l26.63044,-14.64688l26.63044,14.64687z"></path></g></g></g></svg>