<svg xmlns="http://www.w3.org/2000/svg" width="64" height="64" viewBox="0 0 172 172"><defs><linearGradient x1="67.188" y1="96.75" x2="67.188" y2="125.431" gradientUnits="userSpaceOnUse" id="prefix__a"><stop offset="0" stop-color="#60f9ed"/><stop offset="1" stop-color="#60fac6"/></linearGradient><linearGradient x1="107.5" y1="18.81" x2="107.5" y2="156.109" gradientUnits="userSpaceOnUse" id="prefix__b"><stop offset="0" stop-color="#08e1cf"/><stop offset="1" stop-color="#07e398"/></linearGradient><linearGradient x1="86" y1="13.214" x2="86" y2="161.954" gradientUnits="userSpaceOnUse" id="prefix__c"><stop offset="0" stop-color="#08e1cf"/><stop offset="1" stop-color="#07e398"/></linearGradient></defs><g fill="none" stroke-miterlimit="10" font-family="none" font-weight="none" font-size="none" text-anchor="none" style="mix-blend-mode:normal"><path d="M0 172V0h172v172z"/><path d="M67.188 99.435c-5.937 0-10.75 4.813-10.75 10.75 0 5.936 4.813 10.75 10.75 10.75 5.936 0 10.75-4.814 10.75-10.75 0-5.937-4.814-10.75-10.75-10.75z" fill="url(#prefix__a)"/><path d="M107.5 51.06c-8.893 0-16.125 7.232-16.125 16.125S98.607 83.31 107.5 83.31s16.125-7.232 16.125-16.125S116.393 51.06 107.5 51.06zm0 26.875c-5.929 0-10.75-4.822-10.75-10.75 0-5.929 4.821-10.75 10.75-10.75s10.75 4.821 10.75 10.75c0 5.928-4.821 10.75-10.75 10.75z" fill="url(#prefix__b)"/><path d="M86 16.125c-38.528 0-69.875 31.344-69.875 69.875 0 38.53 31.347 69.875 69.875 69.875S155.875 124.531 155.875 86c0-38.53-31.347-69.875-69.875-69.875zm14.66 77.018l-13.214 9.912c-2.446-6.92-8.32-12.226-15.588-13.843l9.807-14.71c2.58 9.098 9.83 16.223 18.995 18.641zM86 67.185c0-11.855 9.645-21.5 21.5-21.5s21.5 9.645 21.5 21.5c0 11.854-9.645 21.5-21.5 21.5S86 79.039 86 67.185zm-2.688 43c0 8.893-7.232 16.125-16.124 16.125-8.893 0-16.126-7.232-16.126-16.125S58.295 94.06 67.189 94.06c8.892 0 16.124 7.232 16.124 16.125zm-37.603-.438l-22.274-8.07A64.452 64.452 0 0121.5 86c0-.726.032-1.446.054-2.166l30.53 11.072a21.43 21.43 0 00-6.375 14.84zM86 150.5c-27.802 0-51.552-17.684-60.595-42.393l21.035 7.622c2.456 9.173 10.815 15.956 20.748 15.956 11.854 0 21.5-9.646 21.5-21.5 0-.438-.04-.866-.065-1.296l19.84-14.878c14.37-.51 25.912-12.333 25.912-26.826 0-14.82-12.056-26.875-26.875-26.875-14.523 0-26.359 11.586-26.83 25.993L65.702 88.76c-2.999.207-5.829 1.021-8.366 2.338l-35.357-12.83C25.813 46.338 53.054 21.5 86 21.5c35.564 0 64.5 28.936 64.5 64.5s-28.936 64.5-64.5 64.5z" fill="url(#prefix__c)"/></g></svg>