<svg xmlns="http://www.w3.org/2000/svg" x="0px" y="0px" width="64" height="64" viewBox="0 0 172 172"
    style=" fill:#000000;">
    <defs>
        <linearGradient x1="84.65625" y1="26.875" x2="84.65625" y2="147.8125" gradientUnits="userSpaceOnUse"
            id="color-1_cLSxYQumaOVo_gr1">
            <stop offset="0" stop-color="#60f9ed"></stop>
            <stop offset="1" stop-color="#60fac6"></stop>
        </linearGradient>
        <linearGradient x1="86" y1="21.5" x2="86" y2="150.5" gradientUnits="userSpaceOnUse"
            id="color-2_cLSxYQumaOVo_gr2">
            <stop offset="0" stop-color="#08e1cf"></stop>
            <stop offset="1" stop-color="#07e398"></stop>
        </linearGradient>
    </defs>
    <g fill="none" fill-rule="nonzero" stroke="none" stroke-width="1" stroke-linecap="butt" stroke-linejoin="miter"
        stroke-miterlimit="10" stroke-dasharray="" stroke-dashoffset="0" font-family="none" font-weight="none"
        font-size="none" text-anchor="none" style="mix-blend-mode: normal">
        <path d="M0,172v-172h172v172z" fill="none"></path>
        <g>
            <path
                d="M86,21.5c-23.091,0 -35.819,7.21325 -45.23062,14.27062c-10.32269,7.74269 -18.25887,20.99744 -18.59212,21.55913l5.85875,3.48031c-3.49106,6.192 -6.536,14.62537 -6.536,25.18994c0,4.93425 0.61006,9.72069 1.66356,14.3405c0.04838,0.25263 0.06181,0.51063 0.11288,0.75787l0.07794,-0.01613c6.45538,26.79975 29.64044,47.09037 57.86994,49.17587c1.55875,0.15588 3.1175,0.24188 4.67625,0.24188v-0.00538c0.03494,0 0.06719,0.00538 0.09944,0.00538c35.56638,0 64.5,-28.93362 64.5,-64.5c0,-35.56638 -28.93362,-64.5 -64.5,-64.5zM82.74813,118.25c-10.65862,-0.01613 -19.32313,-8.68869 -19.32313,-19.35c0,-10.67206 8.67794,-19.35 19.35,-19.35c5.66525,0 10.05931,2.24675 13.42137,6.87463c1.8275,2.5155 5.31588,10.82256 -0.43806,18.94956l5.2245,3.698c-4.15488,6.11675 -11.32244,8.97894 -17.63538,9.14288c-0.20156,0.00806 -0.39506,0.03494 -0.59931,0.03494zM108.5535,82.02787c-7.3315,-11.08863 -19.12156,-18.46581 -32.164,-18.46581c-21.37638,-0.00269 -38.7645,17.329 -38.7645,38.63013c0,1.46469 0.1075,2.87294 0.22038,4.2785l-2.365,0.82237c-1.20669,-2.85412 -2.13119,-5.85069 -2.84338,-8.92788c-2.04788,-10.87362 0.79013,-22.6825 7.54381,-30.99762c7.23206,-8.90906 18.54644,-13.61756 32.71225,-13.61756c19.41181,0 33.80069,13.33 37.76744,27.5415zM86,140.825c-1.32225,0 -2.61494,-0.1075 -3.91569,-0.19887c-17.501,-1.70388 -34.78431,-15.04194 -34.78431,-38.43125c0,-12.39744 7.88244,-22.96738 18.90387,-27.09c-7.51694,5.24869 -12.45387,13.94813 -12.45387,23.79513c0,15.99063 12.99675,28.99544 28.97663,29.02231v0.00269c0.01075,0 0.01613,0 0.02688,0c0.01075,0 0.01613,0 0.02688,0c0.93794,0 1.89737,-0.06181 2.8595,-0.14781c20.00306,-1.50231 35.83513,-18.28844 35.83513,-38.75106c0,-21.25813 -19.952,-44.95112 -48.58194,-44.95112c-16.24862,0 -27.13838,5.23794 -34.26294,11.16387l-1.935,-1.77375c2.7305,-3.4185 6.15975,-7.17025 9.87387,-9.9545c8.54625,-6.407 19.23444,-12.33562 39.42831,-12.33562c30.23169,0 54.825,24.59331 54.825,54.825c0,30.23169 -24.59063,54.825 -54.82231,54.825z"
                fill="url(#color-2_cLSxYQumaOVo_gr2)"></path>
        </g>
    </g>
</svg>