<?xml version="1.0" encoding="UTF-8"?>
<svg xmlns="http://www.w3.org/2000/svg" xmlns:xlink="http://www.w3.org/1999/xlink" viewBox="0 0 128 128" width="128px" height="128px">
<defs>
<linearGradient id="linear0" gradientUnits="userSpaceOnUse" x1="47.03125" y1="21.21513" x2="47.03125" y2="126.890312" gradientTransform="matrix(0.744186,0,0,0.744186,0,0)">
<stop offset="0" style="stop-color:rgb(2.745098%,89.019608%,59.607846%);stop-opacity:1;"/>
<stop offset="1" style="stop-color:rgb(3.137255%,88.235295%,81.176472%);stop-opacity:1;"/>
</linearGradient>
<linearGradient id="linear1" gradientUnits="userSpaceOnUse" x1="114.210693" y1="21.21513" x2="114.210693" y2="126.890312" gradientTransform="matrix(0.744186,0,0,0.744186,0,0)">
<stop offset="0" style="stop-color:rgb(2.745098%,89.019608%,59.607846%);stop-opacity:1;"/>
<stop offset="1" style="stop-color:rgb(3.137255%,88.235295%,81.176472%);stop-opacity:1;"/>
</linearGradient>
<linearGradient id="linear2" gradientUnits="userSpaceOnUse" x1="47.047379" y1="21.21513" x2="47.047379" y2="126.890312" gradientTransform="matrix(0.744186,0,0,0.744186,0,0)">
<stop offset="0" style="stop-color:rgb(2.745098%,89.019608%,59.607846%);stop-opacity:1;"/>
<stop offset="1" style="stop-color:rgb(3.137255%,88.235295%,81.176472%);stop-opacity:1;"/>
</linearGradient>
<linearGradient id="linear3" gradientUnits="userSpaceOnUse" x1="114.21875" y1="21.21513" x2="114.21875" y2="126.890312" gradientTransform="matrix(0.744186,0,0,0.744186,0,0)">
<stop offset="0" style="stop-color:rgb(2.745098%,89.019608%,59.607846%);stop-opacity:1;"/>
<stop offset="1" style="stop-color:rgb(3.137255%,88.235295%,81.176472%);stop-opacity:1;"/>
</linearGradient>
<linearGradient id="linear4" gradientUnits="userSpaceOnUse" x1="130.263123" y1="121.73838" x2="130.263123" y2="133.576813" gradientTransform="matrix(0.744186,0,0,0.744186,0,0)">
<stop offset="0" style="stop-color:rgb(37.64706%,98.039216%,77.64706%);stop-opacity:1;"/>
<stop offset="1" style="stop-color:rgb(37.64706%,97.647059%,92.941177%);stop-opacity:1;"/>
</linearGradient>
</defs>
<g id="surface29639593">
<path style=" stroke:none;fill-rule:nonzero;fill:url(#linear0);" d="M 47.199219 24.800781 L 21.199219 28.601562 C 18.199219 29 16 31.601562 16 34.601562 L 16 56.199219 C 16 59.601562 18.601562 62.199219 22 62.199219 L 48 62.199219 C 51.398438 62.199219 54 59.601562 54 56.199219 L 54 30.800781 C 54 29 53.199219 27.398438 52 26.199219 C 50.601562 25 48.800781 24.601562 47.199219 24.800781 Z M 50 56.199219 C 50 57.398438 49.199219 58.199219 48 58.199219 L 22 58.199219 C 20.800781 58.199219 20 57.398438 20 56.199219 L 20 34.601562 C 20 33.601562 20.800781 32.800781 21.800781 32.601562 L 47.800781 28.800781 L 48 28.800781 C 48.398438 28.800781 49 29 49.199219 29.199219 C 49.601562 29.601562 49.800781 30.199219 49.800781 30.800781 L 49.800781 56.199219 Z M 50 56.199219 "/>
<path style=" stroke:none;fill-rule:nonzero;fill:url(#linear1);" d="M 64 62.199219 L 106 62.199219 C 109.398438 62.199219 112 59.601562 112 56.199219 L 112 22.601562 C 112 20.800781 111.199219 19.199219 110 18 C 108.601562 16.800781 107 16.398438 105.199219 16.601562 L 63.199219 22.601562 C 60.199219 23 58 25.601562 58 28.601562 L 58 56.199219 C 58 59.398438 60.601562 62.199219 64 62.199219 Z M 62 28.601562 C 62 27.601562 62.800781 26.800781 63.800781 26.601562 L 105.800781 20.601562 L 106 20.601562 C 106.398438 20.601562 107 20.800781 107.398438 21 C 107.800781 21.398438 108 22 108 22.601562 L 108 56.199219 C 108 57.398438 107.199219 58.199219 106 58.199219 L 64 58.199219 C 62.800781 58.199219 62 57.398438 62 56.199219 Z M 62 28.601562 "/>
<path style=" stroke:none;fill-rule:nonzero;fill:url(#linear2);" d="M 48 65.800781 L 22 65.800781 C 18.601562 65.800781 16 68.398438 16 71.800781 L 16 93.800781 C 16 96.800781 18.199219 99.398438 21.199219 99.800781 L 47.199219 103.398438 C 47.398438 103.398438 47.800781 103.398438 48 103.398438 C 49.398438 103.398438 50.800781 102.800781 52 102 C 53.398438 100.800781 54 99.199219 54 97.398438 L 54 71.800781 C 54 68.601562 51.398438 65.800781 48 65.800781 Z M 50 97.398438 C 50 98 49.800781 98.601562 49.398438 99 C 49 99.398438 48.398438 99.601562 47.800781 99.398438 L 21.800781 95.800781 C 20.800781 95.601562 20 94.800781 20 93.800781 L 20 71.800781 C 20 70.601562 20.800781 69.800781 22 69.800781 L 48 69.800781 C 49.199219 69.800781 50 70.601562 50 71.800781 Z M 50 97.398438 "/>
<path style=" stroke:none;fill-rule:nonzero;fill:url(#linear3);" d="M 110.199219 67.601562 C 109 66.398438 107.601562 65.800781 106 65.800781 L 64 65.800781 C 60.601562 65.800781 58 68.398438 58 71.800781 L 58 99.601562 C 58 102.601562 60.199219 105.199219 63.199219 105.601562 L 67.398438 106.199219 C 67.601562 106.199219 67.800781 106.199219 68 106.199219 L 105.199219 111.398438 C 105.398438 111.398438 105.800781 111.398438 106 111.398438 C 107.398438 111.398438 108.800781 110.800781 110 110 C 111.398438 108.800781 112 107.199219 112 105.398438 L 112 71.800781 C 112 70.199219 111.398438 68.800781 110.199219 67.601562 Z M 108 105.398438 C 108 106 107.800781 106.601562 107.398438 107 C 107 107.398438 106.398438 107.601562 105.800781 107.398438 L 68 102.199219 L 67.800781 102.199219 C 67.601562 102.199219 67.601562 102.199219 67.601562 102.199219 L 64 101.601562 C 63 101.398438 62.199219 100.601562 62.199219 99.601562 L 62.199219 71.800781 C 62.199219 70.601562 63 69.800781 64.199219 69.800781 L 106.199219 69.800781 C 106.800781 69.800781 107.199219 70 107.601562 70.398438 C 108 70.800781 108.199219 71.199219 108.199219 71.800781 Z M 108 105.398438 "/>
<path style=" stroke:none;fill-rule:nonzero;fill:url(#linear4);" d="M 90.398438 99.398438 L 102.398438 91.800781 C 103.199219 91.398438 104 91.800781 104 92.800781 L 104 102 C 104 102.601562 103.398438 103.199219 102.800781 103 L 90.800781 101.398438 C 89.800781 101.199219 89.601562 99.800781 90.398438 99.398438 Z M 90.398438 99.398438 "/>
</g>
</svg>
