<?xml version="1.0" encoding="UTF-8"?>
<svg xmlns="http://www.w3.org/2000/svg" xmlns:xlink="http://www.w3.org/1999/xlink" viewBox="0 0 128 128" width="128px" height="128px">
<defs>
<linearGradient id="linear0" gradientUnits="userSpaceOnUse" x1="86" y1="24.57988" x2="86" y2="132.719498" gradientTransform="matrix(0.744186,0,0,0.744186,0,0)">
<stop offset="0" style="stop-color:rgb(37.64706%,98.039216%,77.64706%);stop-opacity:1;"/>
<stop offset="1" style="stop-color:rgb(37.64706%,97.647059%,92.941177%);stop-opacity:1;"/>
</linearGradient>
<linearGradient id="linear1" gradientUnits="userSpaceOnUse" x1="86" y1="16.125" x2="86" y2="155.875" gradientTransform="matrix(0.744186,0,0,0.744186,0,0)">
<stop offset="0" style="stop-color:rgb(2.745098%,89.019608%,59.607846%);stop-opacity:1;"/>
<stop offset="1" style="stop-color:rgb(3.137255%,88.235295%,81.176472%);stop-opacity:1;"/>
</linearGradient>
</defs>
<g id="surface29637807">
<path style=" stroke:none;fill-rule:nonzero;fill:url(#linear0);" d="M 81.421875 43.382812 L 78.4375 39.632812 L 81.664062 36.671875 C 85.882812 32.800781 88.808594 30.484375 91.96875 28.519531 C 93.660156 27.464844 95.832031 26.503906 97.539062 25.988281 C 94.179688 22.949219 90.402344 20.367188 86.3125 18.316406 C 81.484375 18.613281 75.117188 20.5625 68.34375 23.855469 C 65.988281 25.003906 63.941406 25.917969 63.789062 25.894531 C 63.636719 25.863281 61.71875 24.929688 59.515625 23.8125 L 59.519531 23.8125 C 55.144531 21.59375 48.394531 19.210938 44.667969 18.570312 C 43.828125 18.425781 42.613281 18.328125 41.46875 18.292969 C 37.386719 20.332031 33.617188 22.90625 30.257812 25.929688 C 30.621094 26.035156 31.015625 26.160156 31.488281 26.320312 C 35.359375 27.628906 39.496094 30.484375 45.914062 36.289062 L 49.664062 39.675781 L 47.613281 42.1875 C 38.117188 53.839844 28.089844 70.367188 24.316406 80.589844 C 22.898438 84.4375 22.085938 88.269531 22 91.046875 C 23.851562 93.824219 25.960938 96.414062 28.3125 98.769531 C 28.308594 98.679688 28.296875 98.601562 28.296875 98.507812 C 28.296875 92.210938 35.222656 81.179688 47.078125 68.609375 C 53.808594 61.464844 63.183594 53.097656 64.199219 53.324219 C 66.171875 53.765625 81.933594 69.128906 87.835938 76.363281 C 95.359375 85.582031 99.597656 93.453125 99.816406 98.347656 C 102.121094 95.984375 104.191406 93.398438 106 90.625 C 105.894531 88.277344 105.308594 85.269531 104.3125 82.226562 C 101.222656 72.808594 90.898438 55.292969 81.421875 43.382812 Z M 81.421875 43.382812 "/>
<path style=" stroke:none;fill-rule:nonzero;fill:url(#linear1);" d="M 64 116 C 35.324219 116 12 92.671875 12 64 C 12 35.328125 35.324219 12 64 12 C 92.675781 12 116 35.328125 116 64 C 116 92.671875 92.675781 116 64 116 Z M 64 16 C 37.535156 16 16 37.535156 16 64 C 16 90.464844 37.535156 112 64 112 C 90.464844 112 112 90.464844 112 64 C 112 37.535156 90.464844 16 64 16 Z M 64 16 "/>
</g>
</svg>
